<svg width="474" height="143" viewBox="0 0 474 143" fill="none" xmlns="http://www.w3.org/2000/svg">
<path fill-rule="evenodd" clip-rule="evenodd" d="M294.027 111.694C266.485 131.994 226.565 142.825 192.194 142.825C144.001 142.825 100.615 125.001 67.792 95.3544C65.2132 93.0232 67.5238 89.8461 70.6184 91.6616C106.041 112.271 149.84 124.67 195.083 124.67C225.595 124.67 259.161 118.357 290.024 105.257C294.687 103.277 298.586 108.31 294.027 111.694Z" fill="white"/>
<path fill-rule="evenodd" clip-rule="evenodd" d="M305.477 98.5934C301.969 94.096 282.205 96.4685 273.334 97.5206C270.632 97.8507 270.219 95.4989 272.653 93.8071C288.395 82.7285 314.224 85.9262 317.236 89.6397C320.248 93.3739 316.452 119.265 301.66 131.623C299.391 133.521 297.224 132.51 298.235 129.993C301.557 121.7 309.004 103.112 305.477 98.5934Z" fill="white"/>
<path fill-rule="evenodd" clip-rule="evenodd" d="M273.953 15.5967V4.82755C273.953 3.19774 275.191 2.10431 276.676 2.10431H324.89C326.437 2.10431 327.675 3.21837 327.675 4.82755V14.0494C327.655 15.5967 326.355 17.6185 324.044 20.8162L299.061 56.4865C308.344 56.2595 318.144 57.6418 326.561 62.3868C328.459 63.4596 328.975 65.0275 329.119 66.5748V78.066C329.119 79.634 327.386 81.47 325.571 80.5211C310.737 72.7433 291.035 71.8975 274.634 80.6035C272.963 81.5113 271.209 79.6958 271.209 78.1279V67.2143C271.209 65.4607 271.23 62.4693 272.984 59.808L301.928 18.2993H276.738C275.191 18.2993 273.953 17.2059 273.953 15.5967Z" fill="white"/>
<path fill-rule="evenodd" clip-rule="evenodd" d="M98.0776 82.7904H83.4093C82.0065 82.6873 80.8924 81.6351 80.7892 80.2941V5.01324C80.7892 3.50721 82.0477 2.31061 83.6156 2.31061H97.2937C98.7172 2.37251 99.8519 3.46594 99.955 4.82755V14.6683H100.223C103.792 5.15763 110.497 0.722046 119.533 0.722046C128.714 0.722046 134.449 5.15763 138.575 14.6683C142.124 5.15763 150.19 0.722046 158.835 0.722046C164.983 0.722046 171.708 3.25961 175.814 8.95364C180.455 15.2872 179.506 24.4885 179.506 32.555L179.486 80.0672C179.486 81.5732 178.227 82.7904 176.659 82.7904H162.012C160.547 82.6873 159.371 81.5113 159.371 80.0672V40.1677C159.371 36.9906 159.66 29.0684 158.958 26.0564C157.865 21.0019 154.585 19.5784 150.335 19.5784C146.786 19.5784 143.073 21.9509 141.567 25.7469C140.061 29.5429 140.205 35.8972 140.205 40.1677V80.0672C140.205 81.5732 138.947 82.7904 137.379 82.7904H122.731C121.246 82.6873 120.09 81.5113 120.09 80.0672L120.07 40.1677C120.07 31.7711 121.452 19.4134 111.034 19.4134C100.491 19.4134 100.904 31.4616 100.904 40.1677V80.0672C100.904 81.5732 99.6456 82.7904 98.0776 82.7904Z" fill="white"/>
<path fill-rule="evenodd" clip-rule="evenodd" d="M369.184 0.722046C390.949 0.722046 402.729 19.4133 402.729 43.1797C402.729 66.1415 389.711 84.3583 369.184 84.3583C347.811 84.3583 336.175 65.667 336.175 42.3752C336.175 18.9388 347.955 0.722046 369.184 0.722046ZM369.308 16.0918C358.497 16.0918 357.816 30.822 357.816 40.0027C357.816 49.2039 357.672 68.8441 369.184 68.8441C380.551 68.8441 381.088 52.9999 381.088 43.3448C381.088 36.9906 380.819 29.3986 378.901 23.3744C377.25 18.1343 373.97 16.0918 369.308 16.0918Z" fill="white"/>
<path fill-rule="evenodd" clip-rule="evenodd" d="M430.952 82.7904H416.345C414.88 82.6873 413.705 81.5113 413.705 80.0672L413.684 4.76566C413.808 3.38341 415.025 2.31061 416.51 2.31061H430.106C431.385 2.37251 432.437 3.239 432.726 4.41495V15.9268H432.994C437.1 5.63215 442.856 0.722046 452.985 0.722046C459.566 0.722046 465.982 3.09458 470.109 9.5932C473.946 15.6173 473.946 25.7469 473.946 33.0295V80.4179C473.781 81.7383 472.564 82.7904 471.119 82.7904H456.41C455.069 82.6873 453.955 81.697 453.81 80.4179V39.5281C453.81 31.2965 454.759 19.2483 444.63 19.2483C441.061 19.2483 437.78 21.6415 436.151 25.2724C434.088 29.8731 433.819 34.453 433.819 39.5281V80.0672C433.799 81.5732 432.52 82.7904 430.952 82.7904Z" fill="white"/>
<path fill-rule="evenodd" clip-rule="evenodd" d="M235.518 46.8314C235.518 52.546 235.663 57.3117 232.775 62.3868C230.443 66.5129 226.73 69.0505 222.624 69.0505C216.992 69.0505 213.691 64.7593 213.691 58.4257C213.691 45.9236 224.894 43.6543 235.518 43.6543V46.8314ZM250.311 82.5841C249.341 83.4506 247.938 83.5125 246.845 82.9348C241.976 78.8913 241.089 77.0139 238.427 73.1559C230.381 81.3669 224.667 83.8219 214.248 83.8219C201.891 83.8219 192.297 76.2093 192.297 60.9633C192.297 49.0594 198.734 40.9517 207.935 36.9906C215.899 33.4834 227.019 32.8645 235.518 31.8948V29.9968C235.518 26.5102 235.787 22.3841 233.724 19.3721C231.949 16.6695 228.525 15.5554 225.492 15.5554C219.901 15.5554 214.929 18.4231 213.712 24.3647C213.464 25.685 212.495 26.9848 211.154 27.0467L196.939 25.52C195.743 25.2518 194.402 24.2821 194.752 22.446C198.012 5.1989 213.609 0 227.555 0C234.693 0 244.018 1.89801 249.65 7.30322C256.789 13.9669 256.108 22.8587 256.108 32.5344V55.393C256.108 62.263 258.955 65.2751 261.637 68.9886C262.565 70.3089 262.771 71.8975 261.575 72.8878C258.583 75.3841 253.261 80.0259 250.331 82.6254L250.311 82.5841Z" fill="white"/>
<path fill-rule="evenodd" clip-rule="evenodd" d="M43.221 46.8314C43.221 52.546 43.3654 57.3117 40.4771 62.3868C38.1459 66.5129 34.453 69.0505 30.3269 69.0505C24.6948 69.0505 21.4145 64.7593 21.4145 58.4257C21.4145 45.9236 32.6169 43.6543 43.221 43.6543V46.8314ZM58.0131 82.5841C57.0435 83.4506 55.6406 83.5125 54.5472 82.9348C49.6784 78.8913 48.8119 77.0139 46.1299 73.1559C38.084 81.3669 32.39 83.8219 21.9509 83.8219C9.61382 83.8219 0 76.2093 0 60.9633C0 49.0594 6.45736 40.9517 15.638 36.9906C23.6013 33.4834 34.7212 32.8645 43.221 31.8948V29.9968C43.221 26.5102 43.4892 22.3841 41.4468 19.3721C39.6519 16.6695 36.2273 15.5554 33.2152 15.5554C27.6243 15.5554 22.6317 18.4231 21.4145 24.3647C21.1669 25.685 20.1973 26.9848 18.877 27.0467L4.64188 25.52C3.4453 25.2518 2.12494 24.2821 2.45503 22.446C5.73529 5.1989 21.3114 0 35.2576 0C42.3958 0 51.7208 1.89801 57.3529 7.30322C64.4911 13.9669 63.8103 22.8587 63.8103 32.5344V55.393C63.8103 62.263 66.6573 65.2751 69.3393 68.9886C70.2883 70.3089 70.4946 71.8975 69.298 72.8878C66.3066 75.3841 60.9839 80.0259 58.0544 82.6254L58.0131 82.5841Z" fill="white"/>
</svg>
