<svg width="280" height="280" viewBox="0 0 280 280" fill="none" xmlns="http://www.w3.org/2000/svg">
<path d="M259.77 140C259.77 200.842 311.091 250.164 250.249 250.164C189.407 250.164 140.085 200.842 140.085 140C140.085 79.1581 189.407 29.8359 250.249 29.8359C311.091 29.8359 259.77 79.1581 259.77 140Z" fill="#F2B426"/>
<path d="M140 20.2304C200.842 20.2304 250.164 -31.0912 250.164 29.7508C250.164 90.5928 200.842 139.915 140 139.915C79.1581 139.915 29.8359 90.5928 29.8359 29.7508C29.8359 -31.0912 79.1581 20.2304 140 20.2304Z" fill="#32C6F2"/>
<path d="M20.2305 140C20.2305 79.1578 -31.0912 29.8356 29.7508 29.8356C90.5929 29.8356 139.915 79.1578 139.915 140C139.915 200.842 90.5928 250.164 29.7508 250.164C-31.0912 250.164 20.2304 200.842 20.2305 140Z" fill="#2CBD80"/>
<path d="M140 259.77C79.1578 259.77 29.8356 311.091 29.8356 250.249C29.8356 189.407 79.1578 140.085 140 140.085C200.842 140.085 250.164 189.407 250.164 250.249C250.164 311.091 200.842 259.77 140 259.77Z" fill="#E41756"/>
</svg>
