<svg width="942" height="592" viewBox="0 0 942 592" fill="none" xmlns="http://www.w3.org/2000/svg">
<path d="M155.896 157.611L160.777 151.032L159.606 143.904L160.991 142.889L162.31 144.542L163.031 138.348L166.69 134.849L173.307 136.103L177.904 141.328L175.963 147.767L170.132 153.241L163.84 162.536L155.896 157.611Z" fill="#EACDB0"/>
<path d="M170.084 160.23C166.298 167.905 162.603 175.625 158.727 183.254C137.925 224.198 115.977 245.642 109.946 257.04C109.684 257.535 109.367 258.076 108.828 258.226C108.476 258.324 108.103 258.231 107.749 258.137C105.86 257.635 103.976 257.113 102.097 256.573C98.0309 255.403 93.9619 254.188 89.9669 252.792C86.2329 251.487 81.6349 248.24 82.6099 244.749C83.2119 242.594 119.848 203.434 121.116 201.601C125.967 194.584 130.817 187.566 135.668 180.549C142.869 170.131 150.07 159.714 157.271 149.296L170.084 160.23Z" fill="#8CABEF"/>
<path d="M203.701 18.2686C203.991 20.4296 202.923 22.4946 201.776 24.2796C194.141 36.1586 175.72 49.3866 162.532 42.2936C163.985 41.9496 167.796 41.8056 170.762 41.0176C177.805 39.1486 182.111 31.6606 185.625 24.9506C187.779 20.8376 187.777 9.38564 192.278 7.60664C196.572 5.90864 203.122 13.9596 203.701 18.2686Z" fill="#8CABEF"/>
<path d="M163.771 26.7036C166.615 19.8226 169.662 15.3576 173.704 10.3226C177.746 5.28758 183.391 1.34758 189.663 0.979581C190.408 0.935581 191.181 0.947578 191.872 1.26258C192.661 1.62158 193.254 2.33458 193.818 3.02358C196.935 6.83358 202.803 11.8406 203.574 17.3566C192.65 16.9426 181.431 21.2926 172.904 28.3846C166.538 33.6786 163.053 42.9426 162.349 42.9706C155.654 43.2326 162.433 29.9416 163.771 26.7036Z" fill="#5D66D3"/>
<path d="M115.899 32.0453C116.212 34.2033 117.805 35.8963 119.398 37.2983C129.997 46.6303 151.337 54.3043 162.077 43.8673C160.586 43.9343 156.881 44.8403 153.813 44.8963C146.528 45.0283 140.334 39.0083 135.116 33.5183C131.917 30.1523 128.781 19.1393 123.965 18.6613C119.368 18.2053 115.275 27.7423 115.899 32.0453Z" fill="#8CABEF"/>
<path d="M156.611 29.215C151.99 23.377 147.836 19.917 142.569 16.183C137.302 12.449 130.793 10.207 124.661 11.572C123.932 11.734 123.192 11.957 122.614 12.449C121.954 13.011 121.579 13.858 121.225 14.676C119.272 19.194 115 25.618 115.771 31.134C126.164 27.742 138.145 28.851 148.289 33.335C155.862 36.682 161.753 44.636 162.437 44.47C168.948 42.886 158.786 31.962 156.611 29.215Z" fill="#5D66D3"/>
<path d="M226.935 34.6249L100.033 52.3584L114.99 159.39L241.892 141.656L226.935 34.6249Z" fill="#D67086"/>
<path d="M235.61 33.4133L91.3579 53.5713L95.1348 80.5993L239.387 60.4414L235.61 33.4133Z" fill="#D67086"/>
<g opacity="0.1">
<path d="M109.204 78.638L230.699 61.665L232.045 71.305L109.204 78.638Z" fill="black"/>
</g>
<path d="M185.189 149.586L169.484 151.78L154.345 43.4107C154.192 42.3117 154.926 41.3017 155.984 41.1537L167.855 39.4957C168.914 39.3477 169.897 40.1187 170.05 41.2167L185.189 149.586Z" fill="#5D66D3"/>
<path d="M257.153 219.687L302.927 213.727L337.273 170.685L349.089 181.641L313.317 233.207L266.634 244.75L251.293 231.979L252.248 219.523L257.153 219.687Z" fill="#3B3387"/>
<path d="M657.063 184.943C656.245 184.767 640.661 188.663 640.661 188.663L600.402 219.182H545.208L542.611 234.766L609.493 247.753L657.063 184.943Z" fill="#3B3387"/>
<path d="M574.685 338.172L563.944 437.763L570.37 568.119L584.817 569.509L605.348 451.772L636.523 335.058L574.685 338.172Z" fill="#BABCBE"/>
<path d="M686.211 569.797L675.21 581.929L679.111 587.713L701.356 579.776L699.822 568.021L686.211 569.797Z" fill="#1D1D33"/>
<path d="M633.061 382.773L655.906 477.679L681.996 571.846L701.231 568.4L687.538 468.967L687.143 375.137L658.116 365.962L633.061 382.773Z" fill="#BABCBE"/>
<path d="M659.968 183.651C659.965 183.652 632.704 193.231 605.239 239.626C577.271 286.871 562.519 354.968 562.519 354.968C562.519 354.968 689.824 410.913 692.641 388.072C692.641 388.072 742.025 210.296 684.13 191.063C681.498 190.188 661.696 182.902 659.968 183.651Z" fill="#3B3387"/>
<path d="M666.9 184.943C650.717 206.877 634.85 233.202 618.421 254.955C608.687 267.844 604.833 282.895 600.097 298.04C595.389 313.097 590.681 328.154 585.972 343.211C583.983 349.573 581.993 355.934 580.004 362.296L634.111 382.107C635.563 362.798 636.539 343.451 638.349 324.172C640.018 306.391 640.808 286.155 648.297 269.689C651.942 261.674 655.71 253.696 659.397 245.693C666.16 231.01 671.417 215.566 678.309 200.942C678.791 199.92 679.886 190.602 679.816 189.438L666.9 184.943Z" fill="white"/>
<path d="M665.577 188.163C670.041 188.892 674.506 189.62 678.97 190.349C679.942 186.875 680.635 183.323 681.042 179.738C685.007 179.43 689.706 178.636 691.348 175.014C691.865 173.873 691.984 172.598 692.096 171.35C692.559 166.192 693.022 161.035 693.484 155.877C693.644 154.093 693.799 152.254 693.261 150.546C692.317 147.548 689.458 145.584 686.605 144.267C679.323 140.905 670.562 140.341 663.309 143.763C661.379 144.674 659.527 145.894 658.315 147.65C656.446 150.358 656.366 153.875 656.353 157.166C656.341 160.204 656.33 163.242 656.318 166.279C656.305 169.773 656.553 173.815 659.372 175.878C660.869 176.973 662.892 177.309 664.148 178.675C666.364 181.083 664.947 184.953 665.577 188.163Z" fill="#EACDB0"/>
<path d="M650.074 149.197L656.573 167.094L656.779 151.429L650.074 149.197Z" fill="#292949"/>
<path d="M636.141 127.58C636.953 124.175 638.336 120.879 639.83 117.975C642.397 112.983 649.281 112.26 654.793 113.319C666.697 115.608 679.384 113.301 689.714 120.418C695.619 124.487 704.233 127.372 709.264 132.235C711.365 134.265 712.761 136.936 713.663 139.714C716.789 149.342 713.8 160.669 706.331 167.501C704.655 169.034 702.789 170.345 700.871 171.562C696.902 174.08 692.119 177.222 687.554 177.33C688.463 173.514 695.1 162.488 693.019 158.607C689.715 152.448 678.817 151.383 672.765 151.069C666.164 150.726 659.414 153.666 652.968 152.96C648.329 152.452 643.223 148.749 640.047 145.434C635.069 140.238 634.673 133.732 636.141 127.58Z" fill="#292949"/>
<path d="M570.229 567.822L556.894 575.702L558.591 581.624L581.435 579.35L582.67 569.301L570.229 567.822Z" fill="#1D1D33"/>
<path d="M567.673 97.0691C566.837 102.116 563.02 106.013 559.217 109.229C533.914 130.623 483.489 147.621 458.785 122.633C462.28 122.861 470.929 125.16 478.124 125.435C495.209 126.089 510.023 112.255 522.521 99.6211C530.183 91.8761 538.059 66.1861 549.381 65.2921C560.186 64.4381 569.339 87.0041 567.673 97.0691Z" fill="#3B3387"/>
<path d="M472.295 88.5155C483.411 75.0375 493.317 67.1165 505.85 58.6035C518.383 50.0905 533.757 45.1375 548.079 48.6275C549.781 49.0425 551.507 49.6005 552.84 50.7815C554.363 52.1315 555.202 54.1365 555.993 56.0715C560.363 66.7625 570.082 82.0325 568.015 94.9375C543.794 86.4905 515.634 88.5285 491.625 98.5705C473.702 106.067 459.507 124.45 457.91 124.028C442.71 120.007 467.064 94.8575 472.295 88.5155Z" fill="#474EBB"/>
<path d="M361.228 67.5507C360.445 72.6067 362.854 77.5007 365.463 81.7437C382.817 109.971 425.408 141.871 456.682 125.85C453.29 124.974 444.356 124.456 437.435 122.47C421.001 117.754 411.25 99.9847 403.323 84.0787C398.464 74.3277 399.007 47.4627 388.531 43.0767C378.534 38.8917 362.79 57.4687 361.228 67.5507Z" fill="#3B3387"/>
<path d="M454.505 89.2198C448.156 72.9438 441.22 62.3238 431.974 50.3218C422.728 38.3198 409.67 28.8118 394.974 27.6538C393.228 27.5158 391.413 27.5068 389.778 28.2128C387.91 29.0188 386.486 30.6618 385.13 32.2528C377.639 41.0438 363.636 52.5138 361.569 65.4178C387.217 64.9598 413.33 75.6928 433.001 92.7318C447.686 105.452 455.427 127.349 457.076 127.447C472.772 128.378 457.493 96.8788 454.505 89.2198Z" fill="#474EBB"/>
<path d="M608.492 149.777L311.626 102.214L271.51 352.596L568.376 400.159L608.492 149.777Z" fill="#5D66D3"/>
<path d="M628.786 153.029L291.332 98.9619L281.201 162.19L618.656 216.257L628.786 153.029Z" fill="#8CABEF"/>
<path opacity="0.1" d="M598.372 212.998L462.437 191.221L448.004 188.515L447.943 188.899L314.147 167.465L446.26 199.519L418.308 375.869L443.981 380.032L471.042 205.872L594.759 235.549L598.372 212.998Z" fill="black"/>
<path d="M435.777 378.91L399.036 373.023L439.65 119.505C440.062 116.935 442.404 115.173 444.881 115.57L472.652 120.019C475.129 120.416 476.803 122.821 476.392 125.391L435.777 378.91Z" fill="#474EBB"/>
<path opacity="0.1" d="M534.17 311.388L595.143 311.148L599.837 281.846L538.066 297.752L534.17 311.388Z" fill="black"/>
<path d="M693.906 196.455C693.906 196.455 681.995 200.593 681.132 202.745C680.27 204.897 640.011 267.882 640.011 267.882L556.886 287.879L560.792 306.842L637.414 298.401L665.335 296.453L710.139 231.519L708.651 208.675L693.906 196.455Z" fill="#403C99"/>
<path d="M557.546 291.907H540.014L528.326 303.595L534.17 311.387L560.462 305.237L557.546 291.907Z" fill="#EACDB0"/>
<path d="M189.036 571.553L187.472 577.655L197.542 587.083L204.925 582.645L200.672 574.88L190.601 565.451L189.036 571.553Z" fill="#1D1D33"/>
<path d="M217.993 382.134L213.241 400.665L220.31 467.877L188.932 569.413L199.851 575.133L245.585 478.289L254.873 449.508L264.153 387.007L217.993 382.134Z" fill="#292949"/>
<path d="M303.107 399.573L296.119 577.223L285.032 578.324L271.883 466.201L243.876 389.368L303.107 399.573Z" fill="#292949"/>
<path d="M284.959 576.932L285.584 583.226L298.197 588.33L303.566 581.44L296.947 575.742L284.959 576.932Z" fill="#1D1D33"/>
<path d="M209.647 362.128C219.162 299.6 215.764 254.063 216.257 241.559C216.75 229.055 225.526 222.567 225.53 222.565C229.381 221.707 232.732 219.228 236.622 218.249C262.93 211.63 277.28 231.718 287.128 253.384C299.262 280.079 309.456 307.664 317.698 335.804C324.931 360.501 332.18 385.421 335.214 411.051C336.466 421.627 337.51 431.656 325.931 436.321C307.48 443.755 286.746 443.593 267.258 445.977C244.873 448.715 222.457 450.716 199.923 451.653C188.159 452.142 200.132 424.657 209.647 362.128Z" fill="#3B3387"/>
<path d="M231.24 220.556C231.24 220.556 232.069 240.253 243.888 240.875C255.706 241.497 262.548 235.899 261.926 229.057C261.304 222.215 257.923 219.068 257.923 219.068C257.923 219.068 243.473 212.677 231.24 220.556Z" fill="#FFF5CC"/>
<path d="M331.498 216.323L297.513 258.364L233.448 228.66L217.354 232.173L216.666 240.23L219.163 261.127L300.33 290.347L319.81 280.607L345.783 222.167L331.498 216.323Z" fill="#3B3387"/>
<path d="M273.122 201.067C266.821 198.127 264.492 192.201 263.642 188.661C263.5 187.661 263.34 186.715 263.166 185.821L263.165 185.805C263.165 185.805 263.164 185.81 263.164 185.812C260.736 173.357 255.509 170.875 255.509 170.875L255.505 170.876C253.665 169.372 251.507 168.26 249.198 167.702C245.649 170.892 243.434 175.525 243.178 180.295L242.658 180.301C244.832 180.353 246.974 180.851 248.968 181.706C250.49 192.464 252.808 209.583 252.892 214.582C253.017 222.045 254.781 222.183 259.798 223.819C262.919 224.836 266.146 223.597 268.141 222.515H268.142C274.984 220.948 282.452 205.421 273.122 201.067Z" fill="#292949"/>
<path d="M258.274 185.819C250.389 168.645 228.684 177.343 225.861 193.539C224.256 202.749 229.141 218.754 240.137 218.904C240.691 220.46 241.641 223.4 243.123 224.164C244.729 224.992 248.61 222.859 250.144 222.077C250.569 221.86 251.009 221.613 251.255 221.203C251.562 220.69 251.358 219.572 251.062 218.35C252.237 217.972 253.403 217.434 254.547 216.715C259.348 213.697 261.931 207.908 262.184 202.235C262.436 196.561 260.643 190.98 258.274 185.819Z" fill="#EACDB0"/>
<path d="M243.586 182.795C255.974 178.329 252.431 168.641 252.431 168.641C242.28 154.073 220.565 163.533 220.565 163.533C220.565 163.533 209.225 169.774 207.084 183.304C206.89 184.533 206.745 185.688 206.638 186.782C206.162 190.213 205.716 197.511 205.984 201.08C206.019 205.443 205.723 208.741 202.524 212.836C196.679 220.318 203.82 223.621 206.702 225.822C209.585 228.023 203.937 244.915 225.305 238.546C239.256 231.346 242.526 231.32 237.36 223.74C235.155 220.078 230.12 215.084 227.838 208.589C224.239 198.343 231.198 187.261 243.586 182.795Z" fill="#292949"/>
<path d="M333.068 216.965L338.641 205.934L351.627 203.986V219.57L344.3 221.56L333.068 216.965Z" fill="#EACDB0"/>
<path d="M3.90895 573.297L2.94995 581.241L17.88 591.102L26.782 584.116L19.797 575.214L4.86695 565.353L3.90895 573.297Z" fill="#1D1D33"/>
<path d="M7.88299 330.489L4.97198 354.615L24.527 463.041L3.38599 570.637L18.763 575.69L71.183 448.272L74.663 409.084L69.416 327.67L7.88299 330.489Z" fill="#353A85"/>
<path d="M115.663 338.645L116.844 440.774L97.5979 572.456H82.7989L73.4529 450.952L53.2019 329.448L115.663 338.645Z" fill="#353A85"/>
<path d="M98.887 570.694H82.885V578.696L98.887 586.697L106.889 578.696L98.887 570.694Z" fill="#1D1D33"/>
<path d="M5.90387 358.18C5.69987 367.498 5.99287 380.056 9.57187 380.515C10.2429 380.601 10.8859 380.27 11.4719 379.95C17.6619 376.57 22.0419 371.814 28.1429 368.548C34.5379 365.126 41.8539 363.307 49.0289 362.034C59.7579 360.074 70.7239 358.858 81.6549 358.667C93.5239 358.46 116.63 360.795 116.63 360.795C123.301 359.674 129.675 357.376 136.065 355.244C147.044 351.583 158.257 348.357 168.559 343.228C171.865 341.582 180.985 336.719 177.725 332.317C175.257 328.984 166.875 326.753 163.097 324.705C154.659 320.131 146.548 314.911 139.406 308.641C129.255 299.73 121.765 288.798 117.077 276.486C114.71 270.271 113.004 263.848 111.595 257.384C110.832 253.883 110.162 250.363 109.534 246.838C109.177 244.836 109.182 237.263 107.718 236.006C92.8799 223.258 88.5149 212.087 70.5489 214.869C29.5549 221.215 32.4599 223.034 23.3139 243.122C19.6359 251.2 14.6509 272.888 13.2449 281.571C11.5419 292.088 9.96587 302.625 8.73887 313.202C7.36987 325.005 6.43087 336.862 6.23187 348.737C6.20987 350.057 6.00087 353.753 5.90387 358.18Z" fill="#8CABEF"/>
<path d="M41.7901 194.831L25.9971 226.536L106.306 249.71L108.703 228.534L41.7901 194.831Z" fill="#DDDAE8"/>
<path d="M83.355 200.268L64.73 206.386L35.615 229.312L32.28 361.582L85.419 353.991L73.033 241.719L101.113 224.711L108.703 215.749L83.355 200.268Z" fill="#DDDAE8"/>
<path d="M69.7118 209.222C65.1418 208.598 60.5728 207.975 56.0028 207.351C56.0938 203.674 56.4788 200.004 57.1538 196.388C53.3808 194.903 49.0378 192.724 48.5188 188.703C48.3558 187.436 48.6208 186.158 48.8838 184.908C49.9738 179.742 51.0638 174.575 52.1538 169.409C52.5308 167.622 52.9298 165.783 53.9648 164.278C55.7808 161.638 59.1548 160.578 62.3298 160.146C70.4328 159.045 79.1418 161.112 85.1908 166.616C86.8008 168.081 88.2408 169.823 88.8978 171.898C89.9108 175.097 88.9378 178.548 87.9668 181.76C87.0708 184.725 86.1738 187.69 85.2778 190.654C84.2468 194.064 82.7978 197.93 79.4318 199.099C77.6448 199.72 75.5728 199.443 73.9408 200.398C71.0598 202.085 71.2848 206.281 69.7118 209.222Z" fill="#EACDB0"/>
<path d="M118.09 159.081C118.929 157.812 119.827 156.59 120.823 155.45C122.982 152.981 125.606 150.893 127.371 148.129C129.136 145.365 129.862 141.557 127.965 138.882C126.74 137.156 124.684 136.239 122.677 135.567C116.064 133.353 108.853 132.954 102.035 134.424C95.5419 135.824 89.6838 138.324 83.2968 135.667C77.2958 133.171 72.8668 133.934 66.4238 135.969C59.4518 138.171 50.1919 138.41 43.8349 141.647C41.1799 142.999 39.0208 145.184 37.3108 147.624C31.3868 156.075 30.9158 168.011 36.1558 176.902C37.3318 178.897 38.7588 180.733 40.2648 182.492C43.3818 186.133 47.1048 190.625 51.5228 192.094C51.7768 188.103 48.6008 175.371 51.7898 172.209C56.8508 167.192 67.7939 169.41 73.7869 170.912C80.3249 172.55 86.0248 177.433 92.5208 178.67C97.1948 179.561 103.279 177.476 107.366 175.194C112.411 172.376 115.03 163.714 118.09 159.081Z" fill="#292949"/>
<path d="M755.016 181.344L750.916 173.906L753.122 166.719L751.84 165.486L750.25 167.012L750.377 160.531L747.104 156.432L740.117 156.831L734.654 161.595L735.748 168.492L740.979 174.92L746.149 185.347L755.016 181.344Z" fill="#B99A6F"/>
<path d="M753.201 172.722C752.226 172.916 771.083 201.256 775.096 203.461C788.123 210.617 810.5 205.905 824.555 205.029C827.455 204.848 830.625 204.778 832.95 206.521C835.301 208.284 836.133 211.533 835.764 214.448C835.395 217.364 834.024 220.044 832.676 222.655C828.455 230.826 824.856 238.747 818.567 245.464C815.145 249.119 804.008 262.889 799.765 263.109C799.148 263.142 798.6 262.744 798.112 262.364C784.85 252.04 772.324 240.77 760.661 228.669C748.525 216.078 747.631 209.371 744.429 192.837C744.197 191.64 741.112 175.424 740.749 175.505C740.765 175.503 753.188 172.724 753.201 172.722Z" fill="#E4E4E4"/>
<path d="M903.587 565.01L904.49 571.294L892.23 579.472L884.746 574.136L890.424 566.905L902.684 558.727L903.587 565.01Z" fill="#1D1D33"/>
<path d="M897.012 372.355L882.182 392.787L884.985 477.97L903.985 562.885L891.288 567.257L846.056 467.343L842.639 436.316L845.896 371.564L897.012 372.355Z" fill="#353A85"/>
<path d="M799.32 387.366L804.642 468.227L828.718 571.262L840.983 570.391L841.232 473.723L850.519 376.413L799.32 387.366Z" fill="#353A85"/>
<path d="M840.804 569.003L827.541 569.945L821.403 576.746L828.528 582.605L841.297 575.332L840.804 569.003Z" fill="#1D1D33"/>
<path d="M852.344 201.375H885.944L928.786 256.493L905.544 428.289C905.544 428.289 836.974 432.956 786.573 424.206C786.573 424.206 772.543 390.373 787.211 303.458C792.954 269.428 805.067 224.709 806.98 222.959C822.343 208.906 846.469 202.905 852.344 201.375Z" fill="#E4E4E4"/>
<path d="M890.676 164.515C883.225 144.79 853.622 138.983 847.728 162.48C845.957 169.541 845.018 176.995 846.695 184.079C848.372 191.163 853.03 197.84 859.84 200.502C859.879 200.517 859.918 200.53 859.957 200.545C859.769 202.408 859.581 204.271 859.394 206.134C859.354 206.534 859.324 206.975 859.562 207.3C859.834 207.67 860.346 207.75 860.804 207.799C863.041 208.042 865.277 208.284 867.514 208.527C868.623 208.647 869.777 208.762 870.825 208.383C873.119 207.552 873.975 204.745 873.98 202.317C873.981 201.737 873.952 201.151 873.92 200.564C886.901 195.563 895.547 177.409 890.676 164.515Z" fill="#B99A6F"/>
<path d="M847.377 133.43C841.944 133.429 838.183 139.224 833.68 142.641C829.934 145.483 825.397 146.76 821.445 149.241C817.493 151.722 813.915 156.21 814.55 161.073C809.933 159.488 804.951 157.899 800.286 159.529C795.621 161.159 792.015 167.52 794.63 171.938C796.972 175.894 802.641 176.07 805.096 179.941C808.981 186.065 802.645 197.405 808.655 200.96C810.1 201.815 811.891 201.808 813.318 202.697C815.091 203.801 815.938 206.021 816.943 207.958C821.498 216.737 831.774 221.394 840.848 218.79C846.204 215.257 849.966 209.037 851.076 202.389C852.413 194.376 847.9 192.314 846.134 185.238C844.204 177.505 845.471 168.826 849.528 162C852.168 157.558 856.281 153.457 861.099 152.272C863.058 151.79 862.679 153.531 864.685 151.672C865.546 150.874 866.484 148.2 866.579 146.97C860.595 143.482 854.526 133.431 847.377 133.43Z" fill="#292949"/>
<path d="M906.388 135.107C909.244 135.461 912.205 134.91 914.987 135.664C919.167 136.796 919.534 140.881 921.17 144.236C922.981 147.95 925.55 152.916 928.586 155.564C930.774 157.473 933.566 158.332 936.085 159.682C938.605 161.032 941.061 163.211 941.467 166.255C941.851 169.139 940.292 172.011 940.436 174.926C940.729 179.262 941.802 181.345 941.128 185.921C940.78 188.282 940.371 190.788 938.896 192.581C936.952 194.944 933.745 195.377 930.865 195.325C927.985 195.273 924.963 194.927 922.33 196.264C916.619 199.163 918.644 205.044 917.801 210.348C916.518 218.419 908.199 224.249 900.911 222.523C894.732 221.059 890.35 214.823 889.62 208.135C889.255 204.787 890.124 201.488 889.723 198.142C889.336 194.915 886.851 190.734 889.398 187.751C890.019 187.025 890.884 186.562 891.419 185.759C891.852 185.11 892.025 184.3 892.09 183.508C892.317 180.76 891.297 177.951 889.419 176.15C888.069 174.856 886.289 174.028 885.332 172.367C884.236 170.465 884.512 168.009 884.313 165.757C883.832 160.312 880.074 155.459 875.243 154.043C872.06 153.11 869.255 152.696 866.339 150.992C865.895 150.733 859.194 146.402 859.21 147.549C859.184 145.552 860.077 143.669 861.007 141.926C862.535 139.06 864.285 136.23 866.751 134.285C874.722 127.995 876.88 139.558 883.649 136.995C885.282 136.377 886.323 134.65 887.706 133.507C890.317 131.348 893.935 131.447 897.065 132.314C900.195 133.18 903.172 134.709 906.388 135.107Z" fill="#292949"/>
<path d="M198.499 233.065C198.951 236.429 197.288 239.644 195.501 242.424C183.614 260.918 154.936 281.512 134.404 270.469C136.666 269.933 142.599 269.709 147.216 268.483C158.18 265.573 164.885 253.916 170.355 243.47C173.708 237.066 173.705 219.238 180.713 216.468C187.401 213.824 197.598 226.357 198.499 233.065Z" fill="#3B3387"/>
<path d="M136.335 246.198C140.763 235.486 145.506 228.534 151.799 220.695C158.092 212.856 166.88 206.723 176.644 206.15C177.804 206.082 179.008 206.1 180.083 206.59C181.311 207.15 182.234 208.259 183.112 209.332C187.964 215.263 197.101 223.058 198.3 231.646C181.293 231.001 163.827 237.774 150.552 248.815C140.642 257.057 135.215 271.48 134.12 271.523C123.697 271.931 134.251 251.239 136.335 246.198Z" fill="#474EBB"/>
<path d="M61.8048 254.513C62.2918 257.872 64.7728 260.508 67.2528 262.692C83.7528 277.22 116.977 289.167 133.697 272.919C131.375 273.024 125.607 274.434 120.831 274.52C109.489 274.726 99.8458 265.353 91.7228 256.806C86.7428 251.566 81.8598 234.42 74.3618 233.676C67.2058 232.966 60.8328 247.814 61.8048 254.513Z" fill="#3B3387"/>
<path d="M125.188 250.107C117.994 241.018 111.527 235.632 103.327 229.818C95.1268 224.004 84.9938 220.514 75.4468 222.639C74.3118 222.892 73.1598 223.239 72.2598 224.005C71.2318 224.88 70.6478 226.199 70.0978 227.472C67.0568 234.506 60.4068 244.506 61.6058 253.094C77.7858 247.813 96.4378 249.54 112.231 256.52C124.021 261.731 133.192 274.114 134.257 273.855C144.395 271.391 128.574 254.384 125.188 250.107Z" fill="#474EBB"/>
<path d="M234.675 258.541L37.1089 286.149L60.3941 452.78L257.96 425.172L234.675 258.541Z" fill="#D67086"/>
<path d="M248.18 256.653L23.6023 288.036L29.4824 330.114L254.061 298.731L248.18 256.653Z" fill="#D67086"/>
<g opacity="0.1">
<path d="M51.3818 327.051L240.531 300.627L242.627 315.634L51.3818 327.051Z" fill="black"/>
</g>
<path d="M169.678 437.506L145.227 440.922L121.658 272.208C121.419 270.498 122.562 268.925 124.21 268.694L142.692 266.112C144.34 265.882 145.87 267.082 146.109 268.792L169.678 437.506Z" fill="#474EBB"/>
<path d="M819.317 217.123C819.661 219.679 818.397 222.121 817.04 224.233C808.009 238.283 786.222 253.929 770.623 245.539C772.341 245.132 776.849 244.961 780.357 244.03C788.687 241.819 793.781 232.963 797.936 225.027C800.483 220.162 800.481 206.618 805.805 204.513C810.885 202.505 818.632 212.026 819.317 217.123Z" fill="#8CABEF"/>
<path d="M772.089 227.101C775.453 218.963 779.056 213.681 783.837 207.726C788.618 201.771 795.295 197.111 802.712 196.676C803.594 196.624 804.508 196.638 805.325 197.01C806.258 197.435 806.959 198.278 807.626 199.093C811.312 203.599 818.254 209.521 819.165 216.045C806.244 215.555 792.975 220.7 782.89 229.088C775.361 235.35 771.238 246.307 770.406 246.34C762.488 246.65 770.506 230.93 772.089 227.101Z" fill="#5D66D3"/>
<path d="M715.467 233.418C715.837 235.97 717.722 237.973 719.606 239.632C732.142 250.669 757.382 259.746 770.085 247.402C768.321 247.481 763.939 248.553 760.31 248.619C751.693 248.776 744.367 241.654 738.196 235.161C734.413 231.18 730.703 218.154 725.006 217.589C719.57 217.049 714.729 228.329 715.467 233.418Z" fill="#8CABEF"/>
<path d="M763.621 230.071C758.155 223.166 753.243 219.074 747.013 214.657C740.783 210.24 733.085 207.588 725.832 209.203C724.97 209.395 724.094 209.659 723.411 210.24C722.63 210.905 722.187 211.907 721.768 212.874C719.458 218.218 714.405 225.815 715.317 232.339C727.609 228.327 741.78 229.639 753.778 234.942C762.735 238.901 769.703 248.309 770.512 248.112C778.212 246.241 766.193 233.32 763.621 230.071Z" fill="#5D66D3"/>
<path d="M846.814 236.448L696.719 257.423L714.41 384.015L864.504 363.04L846.814 236.448Z" fill="#D67086"/>
<path d="M857.075 235.014L686.459 258.856L690.927 290.825L861.543 266.982L857.075 235.014Z" fill="#D67086"/>
<g opacity="0.1">
<path d="M707.549 288.525L851.248 268.451L852.841 279.852L707.549 288.525Z" fill="black"/>
</g>
<path d="M797.421 372.441L778.845 375.036L760.939 246.86C760.757 245.561 761.625 244.365 762.878 244.191L776.919 242.23C778.171 242.055 779.334 242.968 779.515 244.267L797.421 372.441Z" fill="#5D66D3"/>
<path d="M869.266 303.113L863.029 308.905L855.513 308.531L854.625 310.075L856.491 311.24L850.164 312.706L846.971 316.88L849.045 323.547L854.992 327.67L861.43 324.92L866.413 318.279L875.296 310.717L869.266 303.113Z" fill="#B99A6F"/>
<path d="M861.327 306.985C869.088 301.495 874.782 294.515 882.567 288.962C883.964 287.966 885.437 286.978 887.125 286.656C890.703 285.973 894.112 288.427 896.566 291.106C906.558 302.018 890.956 306.82 882.991 310.548C881.884 311.066 866.872 318.028 867.039 318.36C867.031 318.345 861.327 306.985 861.327 306.985Z" fill="#E4E4E4"/>
<path d="M73.115 294.861L79.979 299.246L86.967 297.59L88.07 298.892L86.521 300.315L92.715 300.601L96.438 303.986L95.654 310.637L90.792 315.558L84.271 314.079L78.437 308.677L68.782 303.082L73.115 294.861Z" fill="#EACDB0"/>
<path d="M79.353 297.093L39.557 273.014L43.769 237.79L27.555 221.996L0.594971 281.33L74.914 312.344L79.353 297.093Z" fill="#8CABEF"/>
</svg>
