<svg width="2134" height="280" viewBox="0 0 2134 280" fill="none" xmlns="http://www.w3.org/2000/svg">
<path d="M259.77 140C259.77 200.842 311.091 250.164 250.249 250.164C189.407 250.164 140.085 200.842 140.085 140C140.085 79.1581 189.407 29.8359 250.249 29.8359C311.091 29.8359 259.77 79.1581 259.77 140Z" fill="#F2B426"/>
<path d="M140 20.2304C200.842 20.2304 250.164 -31.0912 250.164 29.7508C250.164 90.5928 200.842 139.915 140 139.915C79.1581 139.915 29.8359 90.5928 29.8359 29.7508C29.8359 -31.0912 79.1581 20.2304 140 20.2304Z" fill="#32C6F2"/>
<path d="M20.2305 140C20.2305 79.1578 -31.0912 29.8356 29.7508 29.8356C90.5929 29.8356 139.915 79.1578 139.915 140C139.915 200.842 90.5928 250.164 29.7508 250.164C-31.0912 250.164 20.2304 200.842 20.2305 140Z" fill="#2CBD80"/>
<path d="M140 259.77C79.1578 259.77 29.8356 311.091 29.8356 250.249C29.8356 189.407 79.1578 140.085 140 140.085C200.842 140.085 250.164 189.407 250.164 250.249C250.164 311.091 200.842 259.77 140 259.77Z" fill="#E41756"/>
<path d="M528.172 249.399H488.968L485.905 227.312C476.41 241.116 455.889 254 424.955 254C364.618 254 315 209.52 315 140.807C315 72.4 366.762 27.3068 428.018 27.3068C490.193 27.3068 518.983 64.1176 528.478 94.4865L481.923 110.745C478.554 97.2473 464.159 72.7068 428.018 72.7068C398.615 72.7068 364.005 92.3392 364.005 140.807C364.005 186.207 394.021 209.827 429.243 209.827C465.078 209.827 480.086 186.514 482.842 174.243H417.604V133.138H528.172V249.399Z" fill="black"/>
<path d="M617.939 249.399H568.934V31.9081H617.939V249.399Z" fill="black"/>
<path d="M713.644 249.399H664.946V31.9081H804.916V77.9216H713.338V123.935H793.89V168.108H713.644V249.399Z" fill="black"/>
<path d="M1015.46 78.2284H948.385V249.399H899.993V78.2284H833.223V31.9081H1015.46V78.2284Z" fill="black"/>
<path d="M1105.61 158.599L1030.27 31.9081H1086.93L1131.34 112.585L1176.36 31.9081H1230.27L1154.01 158.599V249.399H1105.61V158.599Z" fill="black"/>
<path d="M1460.26 249.399L1440.66 228.232C1425.65 243.57 1406.66 253.693 1383.69 253.693C1340.81 253.693 1316.61 223.938 1316.61 193.876C1316.61 167.188 1330.39 151.543 1353.67 134.672L1350.61 131.297C1340.2 119.947 1327.94 104.303 1327.94 84.6703C1327.94 47.5527 1359.18 27 1389.51 27C1425.34 27 1451.68 50.0068 1451.68 82.8297C1451.68 104.609 1436.98 121.481 1421.05 133.138L1414.01 138.353L1443.11 169.028L1500.99 109.824V166.881L1470.36 197.864L1519.06 249.399H1460.26ZM1384.91 213.815C1395.63 213.815 1404.82 208.6 1413.7 199.397L1380.01 163.2L1378.48 164.427C1368.37 171.789 1361.64 179.458 1361.64 191.422C1361.64 202.772 1370.82 213.815 1384.91 213.815ZM1371.13 83.1365C1371.13 91.7257 1376.95 98.7811 1382.16 104.303L1387.36 109.824L1395.94 103.689C1404.82 97.2473 1408.5 89.8851 1408.5 82.8297C1408.5 72.4 1400.23 64.4243 1389.51 64.4243C1380.32 64.4243 1371.13 70.2527 1371.13 83.1365Z" fill="black"/>
<path d="M1705.78 254C1643.3 254 1593.07 208.907 1593.07 141.114C1593.07 73.3203 1644.52 27.3068 1705.17 27.3068C1770.4 27.3068 1799.19 69.3324 1806.24 100.622L1760.6 115.039C1757.23 100.008 1743.45 74.5473 1705.17 74.5473C1676.07 74.5473 1643.3 95.4067 1643.3 141.114C1643.3 181.912 1673.31 205.532 1705.78 205.532C1743.45 205.532 1758.46 180.378 1762.75 164.734L1808.99 177.924C1801.95 207.986 1773.16 254 1705.78 254Z" fill="black"/>
<path d="M1878.09 140.5C1878.09 185.9 1910.56 206.146 1940.88 206.146C1970.9 206.146 2003.36 185.9 2003.36 140.5C2003.36 95.1 1970.9 74.5473 1940.88 74.5473C1910.56 74.5473 1878.09 95.1 1878.09 140.5ZM1827.86 140.807C1827.86 71.7865 1879.62 27.3068 1940.88 27.3068C2001.83 27.3068 2053.59 71.7865 2053.59 140.807C2053.59 209.52 2001.83 254 1940.88 254C1879.62 254 1827.86 209.52 1827.86 140.807Z" fill="black"/>
<path d="M2071.21 220.564C2071.21 203.385 2085.3 189.274 2102.45 189.274C2119.6 189.274 2134 203.385 2134 220.564C2134 237.435 2119.6 252.159 2102.45 252.159C2085.3 252.159 2071.21 237.435 2071.21 220.564Z" fill="black"/>
</svg>
