<?xml version="1.0" encoding="UTF-8"?>
<svg xmlns="http://www.w3.org/2000/svg" xmlns:xlink="http://www.w3.org/1999/xlink" width="2400" height="2400" viewBox="0 0 2400 2400">
<rect x="-240" y="-240" width="2880" height="2880" fill="rgb(100%, 100%, 100%)" fill-opacity="1"/>
<path fill-rule="nonzero" fill="rgb(87.889099%, 99.609375%, 100%)" fill-opacity="1" d="M 2017.421875 1473.570312 C 2015.429688 1517.644531 1997.808594 1561.773438 1970.558594 1603.722656 C 1953.511719 1627.191406 1874.761719 1720.503906 1911.128906 1719.679688 C 1925.808594 1719.347656 1960.601562 1720.359375 1989.089844 1727.910156 C 2300.898438 1810.578125 1355.039062 2029.953125 1649.339844 1683.5 C 1669.800781 1659.410156 1680.75 1648.648438 1698.101562 1620.84375 C 1710.589844 1600.820312 1724.140625 1581.269531 1737.359375 1561.714844 C 1746.421875 1548.265625 1755.261719 1534.84375 1763.960938 1521.152344 C 1798.46875 1466.417969 1756.550781 1481.113281 1717.910156 1485.667969 C 1681.890625 1489.523438 1671.601562 1490.085938 1636.21875 1500.789062 C 1571.101562 1520.5 1530.410156 1524.621094 1473.898438 1477.578125 C 1411.238281 1425.421875 1441.359375 1366.300781 1462.378906 1301.601562 C 1469.691406 1278.539062 1496.890625 1219.75 1480.378906 1199.789062 C 1474.570312 1192.769531 1465.738281 1191.011719 1457.230469 1190.101562 C 1445.109375 1189.351562 1430.730469 1218.96875 1424.03125 1229.621094 C 1384.820312 1293.390625 1356.839844 1399.378906 1301.28125 1442.292969 L 1291.261719 1450.035156 C 1281.589844 1456.527344 1273.519531 1460.371094 1262.878906 1464.914062 C 1245.910156 1471.679688 1231.46875 1473.964844 1213.390625 1475.394531 L 1206.789062 1475.613281 C 1059.121094 1473.183594 1010.390625 1210.699219 967.542969 1103.121094 C 965.28125 1097.441406 962.941406 1091.859375 960.5625 1086.230469 C 945.214844 1051.058594 908.390625 981.511719 876.730469 1048.671875 C 843.203125 1119.789062 898.238281 1258.691406 907.570312 1338.660156 C 915.929688 1410.269531 912.496094 1494.476562 831.761719 1520.261719 C 808.652344 1526.753906 784.246094 1526.609375 760.507812 1524.855469 C 689.449219 1518.375 624.339844 1486.984375 559.605469 1459.152344 C 612.613281 1543.351562 680.847656 1636.960938 573.746094 1712.742188 C 525.144531 1747.132812 456.59375 1756.058594 404.746094 1722.78125 C 384.3125 1709.664062 335.761719 1672.566406 370.398438 1648.539062 C 392.378906 1633.289062 414.699219 1633.421875 395.785156 1601.769531 C 371.472656 1561.082031 354.128906 1516.382812 338.476562 1471.785156 C 316.601562 1408.660156 295.488281 1290.210938 316.78125 1226.851562 C 359.914062 1124.960938 468.394531 1190.339844 539.644531 1216.730469 C 550.195312 1220.640625 616.074219 1246.800781 620.417969 1230.289062 C 625.894531 1209.488281 583.949219 1109.050781 575.847656 1083.359375 C 539.753906 958.058594 538.550781 851.261719 674.191406 796.46875 C 751.703125 765.761719 822.863281 755.71875 899.675781 717.011719 C 1022.648438 655.289062 1104.789062 631.910156 1160.019531 785.640625 C 1204.199219 908.621094 1159.640625 1029.910156 1186.25 1150.128906 C 1202.609375 1224.050781 1230.011719 1141.761719 1241.78125 1116.25 C 1306.328125 976.351562 1388.109375 890.871094 1529.289062 827.128906 C 1609.570312 793.378906 1690.269531 832.449219 1718.058594 913.789062 C 1793.800781 1135.410156 1702.5 1049.988281 1683.109375 1206.691406 C 1673.929688 1280.859375 1719.5 1315.871094 1790.121094 1312.480469 C 1864.539062 1307.148438 1921.25 1278.300781 1980.480469 1339.578125 C 1994.300781 1354.488281 2001.601562 1368.929688 2008.601562 1387.808594 C 2017.351562 1415.878906 2018.421875 1444.429688 2017.421875 1473.570312 "/>
<path fill-rule="evenodd" fill="rgb(87.889099%, 99.609375%, 100%)" fill-opacity="1" d="M 500.960938 1160.011719 C 523.328125 1161.871094 552.996094 1151.800781 546.863281 1118.289062 C 541.535156 1093.578125 518.59375 1050.679688 499.316406 1033.390625 C 477.46875 1013.808594 439.574219 991.640625 451.964844 1038.910156 C 461.449219 1075.109375 465.671875 1068.800781 466.417969 1107.03125 C 467.035156 1138.570312 471.003906 1155.921875 500.960938 1160.011719 "/>
<path fill-rule="evenodd" fill="rgb(87.889099%, 99.609375%, 100%)" fill-opacity="1" d="M 1213.550781 833.089844 C 1201.539062 841.28125 1209.738281 868.988281 1210.539062 881.671875 C 1212.308594 909.539062 1209.308594 1047.378906 1267.320312 976.738281 C 1274.160156 968.410156 1307.171875 926.828125 1304.878906 916.828125 C 1302.851562 907.988281 1272.839844 901.25 1258.738281 874.589844 C 1249.769531 857.621094 1234.640625 834.328125 1213.550781 833.089844 "/>
<path fill-rule="evenodd" fill="rgb(87.889099%, 99.609375%, 100%)" fill-opacity="1" d="M 2081.300781 1389.078125 C 2060.488281 1416.972656 2056.960938 1359.03125 2050.898438 1345.738281 C 2031.628906 1303.441406 1993.210938 1296.609375 1989.050781 1251.078125 C 1987.140625 1230.121094 1995.898438 1235.300781 2004.789062 1247.558594 C 2026.058594 1276.898438 2052.5 1283.539062 2075.730469 1314.371094 C 2093.578125 1338.058594 2098.761719 1363.308594 2081.300781 1389.078125 "/>
<path fill-rule="evenodd" fill="rgb(87.889099%, 99.609375%, 100%)" fill-opacity="1" d="M 1574.800781 778.851562 C 1574.808594 765.25 1563.980469 748.378906 1535.488281 755.21875 C 1514.539062 760.75 1479.148438 778.570312 1465.609375 791.769531 C 1450.269531 806.738281 1433.851562 831.570312 1473.769531 819.679688 C 1504.339844 810.570312 1498.589844 808.628906 1531.539062 804.578125 C 1558.71875 801.238281 1573.421875 797.21875 1574.800781 778.851562 "/>
<path fill-rule="evenodd" fill="rgb(100%, 36.863708%, 38.818359%)" fill-opacity="1" d="M 1134.648438 1197.058594 C 994.699219 1214.648438 969.589844 1108.421875 1044.96875 1060.578125 C 917.964844 1088.011719 925.679688 1237.199219 1091.230469 1214.929688 C 1096.710938 1214.191406 1118.289062 1204.328125 1134.648438 1197.058594 "/>
<path fill-rule="evenodd" fill="rgb(85.9375%, 22.338867%, 24.31488%)" fill-opacity="1" d="M 1034.429688 1089.148438 C 1092.359375 1080.910156 1152.261719 1103.761719 1140.21875 1184.621094 C 1139.699219 1188.121094 1139.109375 1191.789062 1138.460938 1195.378906 C 1145.398438 1192.328125 1150.941406 1189.988281 1153.109375 1189.441406 C 1157.398438 1188.371094 1161.078125 1169.460938 1163.421875 1153.789062 C 1175.460938 1072.929688 1115.558594 1050.078125 1057.628906 1058.320312 C 1053.269531 1058.941406 1049.050781 1059.699219 1044.96875 1060.578125 C 1030.351562 1069.859375 1019.511719 1081.328125 1012.558594 1093.671875 C 1019.410156 1091.78125 1026.699219 1090.25 1034.429688 1089.148438 "/>
<path fill-rule="nonzero" fill="rgb(100%, 89.0625%, 45.872498%)" fill-opacity="1" d="M 1267.550781 697.421875 C 1266.839844 698.058594 1241.730469 971.519531 1216.371094 1119.980469 L 1208.660156 1118.191406 C 1236.28125 971.710938 1254.960938 697.199219 1259.671875 696.910156 L 1267.550781 697.421875 "/>
<path fill-rule="evenodd" fill="rgb(100%, 43.920898%, 48.631287%)" fill-opacity="1" d="M 1017.800781 1066.519531 C 1000.601562 1085.640625 992.402344 1109.648438 991.460938 1134.519531 C 990.035156 1171.96875 1000.96875 1196.179688 1019.441406 1211.019531 C 979.203125 1202.609375 950.773438 1176.480469 953.015625 1117.46875 C 953.960938 1092.609375 962.15625 1068.589844 979.351562 1049.480469 C 1001.570312 1024.78125 1035.390625 1011.171875 1070.75 1011.621094 C 1098.320312 1011.960938 1122.261719 1019.859375 1142.398438 1033.03125 C 1132 1030.320312 1120.921875 1028.808594 1109.191406 1028.660156 C 1073.828125 1028.21875 1040.019531 1041.820312 1017.800781 1066.519531 "/>
<path fill-rule="evenodd" fill="rgb(85.9375%, 22.338867%, 24.31488%)" fill-opacity="1" d="M 1142.398438 1033.03125 C 1188.769531 1063.359375 1214.949219 1121.601562 1218.789062 1179.660156 C 1208.699219 1182.898438 1196.96875 1186.660156 1184.179688 1190.480469 C 1177.480469 1120.578125 1138.480469 1052 1070.941406 1033.839844 C 1083.128906 1030.269531 1096.058594 1028.5 1109.191406 1028.660156 C 1120.921875 1028.808594 1132 1030.320312 1142.398438 1033.03125 "/>
<path fill-rule="nonzero" fill="rgb(100%, 89.0625%, 45.872498%)" fill-opacity="1" d="M 1207.761719 780.191406 C 1239.039062 911.898438 1230.171875 993.238281 1219.269531 1093.300781 C 1215.691406 1126.078125 1211.898438 1160.890625 1209.230469 1200.261719 C 1208.46875 1211.488281 1208.121094 1222.429688 1208.351562 1232.761719 C 1208.570312 1243.03125 1209.378906 1252.691406 1210.941406 1261.421875 C 1216.878906 1294.648438 1233.828125 1308.398438 1269.351562 1337.199219 C 1276.570312 1343.058594 1284.570312 1349.539062 1293.730469 1357.21875 C 1300.441406 1362.851562 1309.429688 1371.308594 1319.199219 1381.5 C 1327.480469 1390.148438 1336.28125 1400.015625 1344.660156 1410.40625 C 1358.578125 1427.660156 1371.5 1446.519531 1379.339844 1464.050781 L 1379.339844 1464.066406 C 1386.019531 1479.015625 1389.070312 1493.148438 1386.101562 1504.832031 L 1378.429688 1502.882812 C 1380.921875 1493.101562 1378.121094 1480.695312 1372.121094 1467.285156 L 1372.109375 1467.285156 C 1364.558594 1450.390625 1352.03125 1432.128906 1338.519531 1415.378906 C 1330.210938 1405.070312 1321.570312 1395.390625 1313.5 1386.960938 C 1303.988281 1377.03125 1295.210938 1368.769531 1288.648438 1363.269531 C 1279.96875 1356 1271.789062 1349.359375 1264.378906 1343.359375 C 1227.320312 1313.300781 1209.621094 1298.949219 1203.160156 1262.789062 C 1201.53125 1253.648438 1200.691406 1243.589844 1200.449219 1232.941406 C 1200.21875 1222.351562 1200.578125 1211.171875 1201.351562 1199.71875 C 1204.019531 1160.339844 1207.828125 1125.378906 1211.421875 1092.449219 C 1222.238281 993.160156 1231.039062 912.449219 1200.058594 782 L 1207.761719 780.191406 "/>
<path fill-rule="nonzero" fill="rgb(100%, 89.0625%, 45.872498%)" fill-opacity="1" d="M 1341.03125 716 C 1340.691406 716.929688 1223.621094 1039.058594 1216.449219 1119.449219 L 1208.589844 1118.71875 C 1215.851562 1037.300781 1333.261719 714.261719 1333.589844 713.328125 L 1341.03125 716 "/>
<path fill-rule="evenodd" fill="rgb(79.296875%, 85.9375%, 35.276794%)" fill-opacity="1" d="M 1163.390625 521.859375 C 1213.449219 514.039062 1261.171875 553.390625 1269.980469 609.761719 C 1278.710938 665.609375 1227.320312 720.378906 1203.910156 781.089844 C 1163.089844 730.421875 1097.429688 693.949219 1088.699219 638.089844 C 1079.890625 581.730469 1113.328125 529.691406 1163.390625 521.859375 "/>
<path fill-rule="evenodd" fill="rgb(79.296875%, 85.9375%, 35.276794%)" fill-opacity="1" d="M 1191.738281 791.351562 L 1218.628906 787.148438 C 1223.121094 786.449219 1226.21875 782.199219 1225.511719 777.71875 C 1224.808594 773.230469 1220.570312 770.128906 1216.078125 770.828125 L 1189.191406 775.039062 C 1184.699219 775.738281 1181.601562 779.980469 1182.308594 784.46875 C 1183.011719 788.960938 1187.25 792.050781 1191.738281 791.351562 "/>
<path fill-rule="evenodd" fill="rgb(100%, 100%, 100%)" fill-opacity="1" d="M 1110.621094 619.300781 C 1106.289062 617.070312 1101.390625 608.789062 1104.78125 595.371094 C 1107.441406 585.578125 1114.621094 570.429688 1119.398438 565.691406 C 1124.820312 560.308594 1133.429688 555.988281 1127.941406 574.421875 C 1123.730469 588.53125 1123.359375 585.28125 1120.660156 601.429688 C 1118.429688 614.761719 1116.519531 621.601562 1110.621094 619.300781 "/>
<path fill-rule="evenodd" fill="rgb(100%, 100%, 100%)" fill-opacity="1" d="M 1129.480469 557.398438 C 1127.089844 554.640625 1129.078125 545.910156 1138.859375 541.25 C 1143.871094 538.871094 1150.261719 537.511719 1140.398438 547.371094 C 1136.859375 550.910156 1133.878906 561.148438 1129.480469 557.398438 "/>
<path fill-rule="evenodd" fill="rgb(93.75%, 29.417419%, 29.026794%)" fill-opacity="1" d="M 1292.230469 432.300781 C 1345.039062 438 1382.640625 490.828125 1376.21875 550.289062 C 1369.851562 609.21875 1302.910156 650.679688 1262.679688 705.769531 C 1235.148438 643.351562 1178.609375 588.550781 1184.980469 529.628906 C 1191.398438 470.171875 1239.421875 426.589844 1292.230469 432.300781 "/>
<path fill-rule="evenodd" fill="rgb(93.75%, 29.417419%, 29.026794%)" fill-opacity="1" d="M 1247.558594 712.839844 L 1275.941406 715.910156 C 1280.671875 716.421875 1284.960938 712.960938 1285.46875 708.230469 C 1285.980469 703.5 1282.53125 699.210938 1277.789062 698.691406 L 1249.421875 695.628906 C 1244.691406 695.121094 1240.398438 698.570312 1239.890625 703.300781 C 1239.378906 708.039062 1242.828125 712.328125 1247.558594 712.839844 "/>
<path fill-rule="evenodd" fill="rgb(100%, 100%, 100%)" fill-opacity="1" d="M 1212.28125 516.570312 C 1208.5 513.140625 1205.800781 503.410156 1212.890625 490.75 C 1218.238281 481.570312 1229.640625 468.191406 1235.769531 464.679688 C 1242.71875 460.710938 1252.609375 458.691406 1242.03125 475.851562 C 1233.929688 488.988281 1234.441406 485.601562 1227.308594 501.21875 C 1221.429688 514.101562 1217.628906 520.511719 1212.28125 516.570312 "/>
<path fill-rule="evenodd" fill="rgb(100%, 100%, 100%)" fill-opacity="1" d="M 1248.230469 459.039062 C 1246.558594 455.601562 1250.960938 447.300781 1262.121094 445.25 C 1267.839844 444.199219 1274.679688 444.558594 1262.011719 451.859375 C 1257.46875 454.46875 1251.660156 464.03125 1248.230469 459.039062 "/>
<path fill-rule="evenodd" fill="rgb(5.880737%, 73.242188%, 76.951599%)" fill-opacity="1" d="M 1435.121094 518.628906 C 1396.039062 499.128906 1346.550781 519 1324.589844 563.011719 C 1302.828125 606.621094 1330.75 665.039062 1334.128906 721.039062 C 1380.910156 690.070312 1444.371094 677.238281 1466.128906 633.628906 C 1488.089844 589.621094 1474.210938 538.128906 1435.121094 518.628906 "/>
<path fill-rule="evenodd" fill="rgb(5.880737%, 73.242188%, 76.951599%)" fill-opacity="1" d="M 1341.449219 732.648438 L 1320.449219 722.171875 C 1316.949219 720.421875 1315.511719 716.121094 1317.261719 712.621094 C 1319.011719 709.121094 1323.308594 707.679688 1326.808594 709.429688 L 1347.808594 719.910156 C 1351.308594 721.660156 1352.75 725.949219 1351 729.449219 C 1349.25 732.960938 1344.960938 734.390625 1341.449219 732.648438 "/>
<path fill-rule="evenodd" fill="rgb(100%, 100%, 100%)" fill-opacity="1" d="M 1453.039062 612.46875 C 1457.179688 611.769531 1463.371094 606.238281 1464.078125 594.328125 C 1464.460938 585.589844 1462.511719 571.269531 1459.820312 566.121094 C 1456.769531 560.289062 1450.828125 554.5 1450.53125 571.070312 C 1450.300781 583.761719 1451.449219 581.191406 1449.449219 595.171875 C 1447.800781 606.699219 1447.578125 612.820312 1453.039062 612.46875 "/>
<path fill-rule="evenodd" fill="rgb(100%, 100%, 100%)" fill-opacity="1" d="M 1453.699219 556.679688 C 1456.390625 555.039062 1457.03125 547.339844 1450.21875 540.96875 C 1446.71875 537.699219 1441.820312 534.921875 1447.351562 545.589844 C 1449.339844 549.421875 1449.109375 558.621094 1453.699219 556.679688 "/>
<path fill-rule="evenodd" fill="rgb(100%, 36.863708%, 38.818359%)" fill-opacity="1" d="M 1226.871094 1227.070312 C 1335.171875 1258.75 1376.558594 1130.558594 1325.929688 1066.53125 C 1421.910156 1109.320312 1385.789062 1291.359375 1257.980469 1252.089844 C 1253.761719 1250.789062 1238.488281 1237.148438 1226.871094 1227.070312 "/>
<path fill-rule="evenodd" fill="rgb(85.9375%, 22.338867%, 24.31488%)" fill-opacity="1" d="M 1328.621094 1102.269531 C 1283.980469 1087.96875 1231.53125 1111.601562 1224.921875 1211.429688 C 1224.628906 1215.761719 1224.371094 1220.289062 1224.171875 1224.738281 C 1219.230469 1220.5 1215.28125 1217.230469 1213.648438 1216.410156 C 1210.441406 1214.78125 1211.289062 1191.378906 1212.570312 1172.019531 C 1219.179688 1072.191406 1271.628906 1048.550781 1316.269531 1062.851562 C 1319.628906 1063.929688 1322.851562 1065.160156 1325.929688 1066.53125 C 1335.75 1078.949219 1342.109375 1093.78125 1345.191406 1109.390625 C 1340.089844 1106.570312 1334.570312 1104.171875 1328.621094 1102.269531 "/>
<path fill-rule="evenodd" fill="rgb(100%, 43.920898%, 48.631287%)" fill-opacity="1" d="M 1371.019531 1064.589844 C 1388.21875 1083.710938 1396.410156 1107.71875 1397.359375 1132.578125 C 1398.78125 1170.039062 1387.839844 1194.25 1369.371094 1209.089844 C 1409.609375 1200.679688 1438.039062 1174.550781 1435.800781 1115.539062 C 1434.859375 1090.679688 1426.660156 1066.660156 1409.460938 1047.539062 C 1387.238281 1022.839844 1353.429688 1009.238281 1318.070312 1009.679688 C 1290.488281 1010.03125 1266.550781 1017.929688 1246.421875 1031.101562 C 1256.820312 1028.390625 1267.890625 1026.878906 1279.621094 1026.730469 C 1314.980469 1026.289062 1348.800781 1039.890625 1371.019531 1064.589844 "/>
<path fill-rule="evenodd" fill="rgb(85.9375%, 22.338867%, 24.31488%)" fill-opacity="1" d="M 1246.421875 1031.101562 C 1200.039062 1061.421875 1173.871094 1119.671875 1170.03125 1177.730469 C 1180.121094 1180.96875 1191.839844 1184.730469 1204.628906 1188.550781 C 1211.339844 1118.648438 1250.328125 1050.070312 1317.878906 1031.898438 C 1305.679688 1028.339844 1292.761719 1026.570312 1279.621094 1026.730469 C 1267.890625 1026.878906 1256.820312 1028.390625 1246.421875 1031.101562 "/>
<path fill-rule="evenodd" fill="rgb(76.5625%, 83.201599%, 32.151794%)" fill-opacity="1" d="M 711.839844 1521.960938 C 581.332031 1607.488281 719.011719 1659.691406 832.035156 1711.292969 C 848.820312 1720.109375 888.261719 1751.570312 901.863281 1729.617188 C 920.332031 1699.796875 864.113281 1663.542969 835.957031 1637.429688 L 817.457031 1620.546875 L 711.839844 1521.960938 "/>
<path fill-rule="evenodd" fill="rgb(76.5625%, 83.201599%, 32.151794%)" fill-opacity="1" d="M 751.871094 1544.660156 C 629.453125 1445.199219 621.410156 1593.824219 606.382812 1718.511719 C 603.039062 1737.386719 591.46875 1765.527344 616.789062 1771.890625 C 651.175781 1780.53125 662.214844 1734.765625 678.726562 1699.632812 L 689.3125 1676.632812 L 751.871094 1544.660156 "/>
<path fill-rule="evenodd" fill="rgb(18.041992%, 32.151794%, 51.756287%)" fill-opacity="1" d="M 888.589844 1890.640625 C 892.265625 1891.996094 908.75 1902.027344 908.75 1902.027344 C 922.738281 1908.082031 936.003906 1914.289062 951.398438 1915.007812 C 954.703125 1915.160156 957.96875 1915.328125 960.78125 1915.660156 C 965.613281 1916.234375 971.84375 1921.394531 967.152344 1927.007812 C 957.371094 1938.707031 924.664062 1936.394531 910.078125 1937.589844 C 905.574219 1937.960938 901.128906 1938.730469 896.65625 1939.304688 C 889.777344 1940.179688 880.765625 1941.992188 874.011719 1940.78125 C 863.738281 1938.941406 865.460938 1932.65625 867.601562 1914.140625 C 867.929688 1911.316406 867.792969 1908.613281 866.113281 1905.601562 L 872.65625 1900.949219 L 877.328125 1896.097656 L 888.589844 1890.640625 "/>
<path fill-rule="evenodd" fill="rgb(76.5625%, 83.201599%, 32.151794%)" fill-opacity="1" d="M 905.488281 1718.136719 C 905.734375 1757.8125 903.109375 1795.992188 902.105469 1834.621094 C 901.746094 1848.480469 901.59375 1862.398438 901.855469 1876.464844 L 901.976562 1897.402344 C 885.160156 1915.148438 871.355469 1919.546875 862.476562 1906.601562 C 858.769531 1869.300781 849.359375 1752.476562 843.042969 1715.527344 L 870.265625 1713.421875 C 870.265625 1713.421875 878.390625 1727.136719 884.285156 1724.21875 C 890.179688 1721.304688 891.882812 1718.445312 893.1875 1717.125 C 894.492188 1715.808594 905.488281 1718.136719 905.488281 1718.136719 "/>
<path fill-rule="evenodd" fill="rgb(18.041992%, 32.151794%, 51.756287%)" fill-opacity="1" d="M 494.894531 1854.746094 C 495.433594 1858.929688 494.058594 1879.664062 494.058594 1879.664062 C 495.238281 1896.035156 495.914062 1911.789062 502.894531 1926.851562 C 504.390625 1930.082031 505.855469 1933.28125 506.9375 1936.136719 C 508.792969 1941.03125 506.964844 1949.550781 499.273438 1947.867188 C 483.234375 1944.351562 469.164062 1911.96875 460.757812 1898.632812 C 458.167969 1894.515625 455.214844 1890.652344 452.445312 1886.664062 C 448.183594 1880.535156 441.96875 1872.832031 439.765625 1865.777344 C 436.410156 1855.054688 443.265625 1853.570312 462.011719 1846.398438 C 464.871094 1845.304688 467.386719 1843.832031 469.425781 1840.726562 L 477.125 1844.660156 L 484.082031 1846.710938 L 494.894531 1854.746094 "/>
<path fill-rule="evenodd" fill="rgb(76.5625%, 83.201599%, 32.151794%)" fill-opacity="1" d="M 633.796875 1771.460938 C 602.949219 1791.457031 574.699219 1815.097656 544.046875 1833.59375 C 533.046875 1840.226562 522.105469 1847.054688 511.257812 1854.277344 L 494.972656 1864.824219 C 472.730469 1860.554688 462.40625 1851.972656 468.078125 1838.582031 C 495.34375 1817.074219 582.132812 1744.273438 607.820312 1720.90625 L 619.898438 1741.613281 C 619.898438 1741.613281 613.246094 1754.800781 618.464844 1757.945312 C 623.683594 1761.09375 626.769531 1760.996094 628.445312 1761.355469 C 630.128906 1761.71875 633.796875 1771.460938 633.796875 1771.460938 "/>
<path fill-rule="evenodd" fill="rgb(18.041992%, 32.151794%, 51.756287%)" fill-opacity="1" d="M 892.070312 1418.023438 L 909.179688 1439.78125 C 910.117188 1470.371094 895.582031 1473.421875 876.964844 1466.019531 C 859.964844 1459.265625 843.167969 1451.691406 826.171875 1443.957031 C 801.972656 1432.941406 777.375 1421.601562 751.222656 1411.828125 C 701.351562 1388.859375 719.257812 1344.109375 763.886719 1345.378906 C 794.558594 1346.25 849.234375 1396.011719 892.070312 1418.023438 "/>
<path fill-rule="evenodd" fill="rgb(18.041992%, 32.151794%, 51.756287%)" fill-opacity="1" d="M 720.402344 1346.160156 C 711.296875 1345.730469 705.152344 1343.320312 696.398438 1341.839844 C 590.671875 1323.898438 651.203125 1451.117188 623.304688 1552.527344 C 658.132812 1593.511719 726.480469 1615.957031 780.078125 1581.394531 C 790.953125 1483.464844 861.332031 1325.371094 720.402344 1346.160156 "/>
<path fill-rule="evenodd" fill="rgb(94.921875%, 74.414062%, 59.959412%)" fill-opacity="1" d="M 705.792969 1318.378906 C 705.113281 1328.628906 698.898438 1337.238281 695.242188 1343.871094 C 713.554688 1356.71875 726.652344 1357.089844 748.15625 1352.070312 L 752.984375 1331.121094 L 750.160156 1313.980469 L 705.792969 1318.378906 "/>
<path fill-rule="evenodd" fill="rgb(24.705505%, 10.984802%, 18.821716%)" fill-opacity="1" d="M 764.59375 1268.589844 C 763.929688 1259.210938 768.339844 1246.769531 758.105469 1253.339844 L 754.910156 1255.710938 L 759.902344 1268.480469 L 764.59375 1268.589844 "/>
<path fill-rule="evenodd" fill="rgb(98.826599%, 89.0625%, 76.951599%)" fill-opacity="1" d="M 772.402344 1292.238281 C 769.765625 1283.230469 767.613281 1275.179688 764.59375 1268.589844 C 759.046875 1256.46875 750.578125 1249.230469 730.808594 1249.820312 C 710.964844 1250.410156 689.609375 1258.019531 691.953125 1282.5 C 694.582031 1309.898438 707.34375 1326.761719 722.167969 1335.859375 C 727.023438 1338.839844 732.097656 1340.988281 737.109375 1342.398438 C 790.765625 1357.511719 779.324219 1321.421875 772.402344 1292.238281 "/>
<path fill-rule="evenodd" fill="rgb(24.705505%, 10.984802%, 18.821716%)" fill-opacity="1" d="M 702.011719 1331.699219 L 713.535156 1320.851562 L 708.308594 1305.578125 C 707.65625 1280.660156 716.671875 1296.25 713.238281 1278.058594 L 745.453125 1268.71875 L 759.941406 1260.691406 C 751.613281 1140.25 645.09375 1268.960938 702.011719 1331.699219 "/>
<path fill-rule="evenodd" fill="rgb(98.826599%, 89.0625%, 76.951599%)" fill-opacity="1" d="M 701.265625 1310.769531 C 701.871094 1317.101562 704.820312 1320.988281 708.246094 1323.101562 C 709.371094 1323.789062 710.542969 1324.28125 711.703125 1324.609375 C 744.339844 1333.800781 698.433594 1281.21875 701.265625 1310.769531 "/>
<path fill-rule="evenodd" fill="rgb(18.041992%, 32.151794%, 51.756287%)" fill-opacity="1" d="M 875.269531 1436.777344 C 928.136719 1532.226562 907.835938 1354.199219 904.21875 1306.691406 L 874.464844 1307.578125 C 867.691406 1382.960938 862.164062 1392.160156 854.945312 1446.191406 L 875.269531 1436.777344 "/>
<path fill-rule="evenodd" fill="rgb(16.088867%, 29.80957%, 49.021912%)" fill-opacity="1" d="M 806.1875 1434.878906 C 806.886719 1427.4375 807.269531 1420.238281 807.234375 1413.371094 C 807.234375 1413.371094 829.890625 1429.667969 855.207031 1444.25 C 855.121094 1444.890625 855.03125 1445.535156 854.945312 1446.191406 L 856.964844 1445.257812 C 872.90625 1454.34375 889.71875 1462.59375 902.464844 1465.5625 C 896.601562 1471.039062 887.425781 1470.179688 876.964844 1466.019531 C 859.964844 1459.265625 843.164062 1451.691406 826.171875 1443.957031 C 819.550781 1440.941406 812.894531 1437.902344 806.1875 1434.878906 "/>
<path fill-rule="evenodd" fill="rgb(93.75%, 29.417419%, 29.026794%)" fill-opacity="1" d="M 1467.601562 1490.648438 C 1449.96875 1470.839844 1470.488281 1452.898438 1481.75 1446.539062 C 1494.339844 1437.492188 1475.300781 1450.699219 1488.578125 1442.105469 C 1507.5 1429.867188 1526.828125 1417.496094 1545.75 1403.300781 C 1584.921875 1378.199219 1614.460938 1424.585938 1585.851562 1449.339844 C 1574.941406 1458.785156 1502.148438 1503.820312 1476.121094 1500.128906 C 1470.839844 1499.378906 1468.199219 1496.042969 1467.601562 1490.648438 "/>
<path fill-rule="evenodd" fill="rgb(93.75%, 29.417419%, 29.026794%)" fill-opacity="1" d="M 1493.359375 1488.667969 C 1491.851562 1493.011719 1487.679688 1485.785156 1486.28125 1488.953125 C 1479.738281 1505.21875 1470.820312 1501.894531 1466.210938 1490.714844 C 1456.058594 1466.074219 1453.660156 1397.128906 1450.648438 1372.121094 L 1474.550781 1369.671875 C 1489.738281 1431.925781 1495.351562 1439.015625 1508.121094 1483.390625 L 1493.359375 1488.667969 "/>
<path fill-rule="evenodd" fill="rgb(100%, 84.375%, 21.946716%)" fill-opacity="1" d="M 1092.371094 1164.539062 L 1520.25 1238.929688 L 1415.011719 1718.902344 L 1083.398438 1660.683594 L 1092.371094 1164.539062 "/>
<path fill-rule="evenodd" fill="rgb(100%, 74.804688%, 0%)" fill-opacity="1" d="M 873.570312 1360.859375 L 917.535156 1732.601562 L 1083.398438 1660.683594 L 1092.371094 1164.539062 L 873.570312 1360.859375 "/>
<path fill-rule="evenodd" fill="rgb(94.139099%, 68.943787%, 15.281677%)" fill-opacity="1" d="M 1415.011719 1718.902344 L 1271.761719 1770.480469 L 917.535156 1732.601562 L 1083.398438 1660.683594 L 1415.011719 1718.902344 "/>
<path fill-rule="evenodd" fill="rgb(100%, 74.804688%, 0%)" fill-opacity="1" d="M 1522.121094 1321.539062 L 1499.839844 1332.03125 L 1090.621094 1261.21875 L 1086.410156 1245.410156 C 1086.410156 1245.410156 1522.28125 1320.800781 1522.121094 1321.539062 "/>
<path fill-rule="evenodd" fill="rgb(94.139099%, 68.943787%, 15.281677%)" fill-opacity="1" d="M 872.820312 1435.730469 L 883.523438 1442.824219 L 1090.621094 1261.21875 L 1086.410156 1245.410156 L 872.820312 1435.730469 "/>
<path fill-rule="evenodd" fill="rgb(100%, 66.601562%, 0%)" fill-opacity="1" d="M 1522.121094 1321.539062 L 1549.980469 1194.460938 L 1097.179688 1114.558594 L 1086.410156 1245.410156 L 1522.121094 1321.539062 "/>
<path fill-rule="evenodd" fill="rgb(100%, 59.959412%, 0%)" fill-opacity="1" d="M 1097.179688 1114.558594 L 849.835938 1335.5 L 872.820312 1435.730469 L 1086.410156 1245.410156 L 1097.179688 1114.558594 "/>
<path fill-rule="evenodd" fill="rgb(90.234375%, 24.31488%, 26.660156%)" fill-opacity="1" d="M 1018.898438 1688.648438 C 1002.460938 1534.933594 997.300781 1371.46875 981.714844 1217.699219 L 927.140625 1266.449219 C 950.035156 1408.203125 953.796875 1565.605469 975.269531 1707.566406 L 1018.898438 1688.648438 "/>
<path fill-rule="evenodd" fill="rgb(100%, 36.863708%, 38.818359%)" fill-opacity="1" d="M 1226.910156 1685.882812 L 1306.5 1699.851562 C 1329.570312 1535.558594 1352.640625 1371.261719 1375.710938 1206.96875 L 1382.601562 1164.921875 L 1288.539062 1148.320312 L 1284.289062 1186.75 C 1265.160156 1353.128906 1246.039062 1519.503906 1226.910156 1685.882812 "/>
<path fill-rule="evenodd" fill="rgb(90.234375%, 24.31488%, 26.660156%)" fill-opacity="1" d="M 1306.5 1699.851562 L 1226.910156 1685.882812 L 1105.941406 1752.746094 L 1193.019531 1762.058594 L 1306.5 1699.851562 "/>
<path fill-rule="evenodd" fill="rgb(90.234375%, 24.31488%, 26.660156%)" fill-opacity="1" d="M 1359.359375 1738.9375 L 1018.898438 1688.648438 L 975.269531 1707.566406 L 1307.839844 1757.488281 L 1359.359375 1738.9375 "/>
<path fill-rule="evenodd" fill="rgb(94.921875%, 74.414062%, 59.959412%)" fill-opacity="1" d="M 1628.511719 1398.351562 L 1612.421875 1403.835938 L 1593.988281 1404.421875 L 1580.980469 1392.761719 L 1584.878906 1367.46875 L 1587.488281 1356.5 L 1603.011719 1347.710938 L 1617.078125 1354.179688 L 1625.488281 1354.671875 L 1628.511719 1398.351562 "/>
<path fill-rule="evenodd" fill="rgb(43.530273%, 7.835388%, 20.776367%)" fill-opacity="1" d="M 1618.390625 1549.746094 C 1736.191406 1653.789062 1544.558594 1689.097656 1460.558594 1724.285156 C 1445.191406 1730.722656 1426.859375 1731.183594 1417.980469 1713.929688 C 1405.070312 1684.335938 1461.050781 1658.699219 1490.140625 1638.613281 L 1509.210938 1625.664062 L 1618.390625 1549.746094 "/>
<path fill-rule="evenodd" fill="rgb(93.75%, 29.417419%, 29.026794%)" fill-opacity="1" d="M 1372.738281 1866.191406 C 1368.789062 1867.945312 1351.351562 1880.160156 1351.351562 1880.160156 C 1336.378906 1887.824219 1322.210938 1895.601562 1305.308594 1897.488281 C 1301.691406 1897.890625 1298.101562 1898.308594 1295.03125 1898.875 C 1289.75 1899.851562 1283.261719 1905.976562 1288.820312 1911.824219 C 1300.421875 1924.007812 1336.269531 1919.136719 1352.421875 1919.417969 C 1357.398438 1919.503906 1362.359375 1920.035156 1367.320312 1920.347656 C 1374.960938 1920.824219 1385.011719 1922.175781 1392.359375 1920.363281 C 1403.539062 1917.605469 1401.199219 1910.8125 1397.519531 1890.574219 C 1396.960938 1887.484375 1397.449219 1882.402344 1399.078125 1878.964844 L 1391.019531 1876.40625 L 1385.53125 1871.398438 L 1372.738281 1866.191406 "/>
<path fill-rule="evenodd" fill="rgb(43.530273%, 7.835388%, 20.776367%)" fill-opacity="1" d="M 1468.808594 1718.808594 C 1454.789062 1752.53125 1438.160156 1795.453125 1423.460938 1827.839844 C 1418.191406 1839.460938 1413.070312 1851.203125 1408.25 1863.222656 L 1400.839844 1881.019531 C 1380.230469 1890.03125 1369.230469 1881.523438 1366.351562 1867.367188 C 1376.578125 1834.414062 1408.191406 1739.296875 1416.078125 1705.710938 L 1439.921875 1713.683594 C 1439.921875 1713.683594 1442.539062 1725.484375 1448.589844 1725.128906 C 1454.628906 1724.769531 1457.839844 1720.996094 1459.421875 1720.347656 C 1461 1719.699219 1468.808594 1718.808594 1468.808594 1718.808594 "/>
<path fill-rule="evenodd" fill="rgb(43.530273%, 7.835388%, 20.776367%)" fill-opacity="1" d="M 1607.128906 1545.90625 C 1749.589844 1517.929688 1691.941406 1642.207031 1650.300781 1750.046875 C 1646.320312 1765.472656 1648.050781 1789.140625 1618.789062 1788.9375 C 1587.109375 1781.109375 1597.898438 1739.144531 1599.648438 1703.457031 L 1600.980469 1680.191406 L 1607.128906 1545.90625 "/>
<path fill-rule="evenodd" fill="rgb(93.75%, 29.417419%, 29.026794%)" fill-opacity="1" d="M 1625.378906 1392.03125 C 1583.691406 1395.121094 1539.320312 1383.609375 1547.589844 1422.800781 C 1559.929688 1481.285156 1566.609375 1505.726562 1553.28125 1595.023438 C 1586.738281 1625.960938 1664.121094 1665.699219 1705.691406 1631.179688 C 1704.890625 1547.703125 1741.808594 1360.230469 1625.378906 1392.03125 "/>
<path fill-rule="evenodd" fill="rgb(94.921875%, 74.414062%, 59.959412%)" fill-opacity="1" d="M 1580.980469 1392.761719 C 1585.730469 1390.570312 1598.269531 1386.320312 1604.058594 1386.460938 C 1613.589844 1386.121094 1619.019531 1390.511719 1624.410156 1390.519531 C 1625.851562 1390.441406 1627.371094 1390.511719 1628.019531 1391.328125 C 1622.058594 1400.589844 1596.390625 1418.578125 1584.289062 1399.121094 C 1583.378906 1397.660156 1580.691406 1392.898438 1580.980469 1392.761719 "/>
<path fill-rule="evenodd" fill="rgb(24.705505%, 10.984802%, 18.821716%)" fill-opacity="1" d="M 1564.648438 1316.300781 C 1559.789062 1327.28125 1566.980469 1365.890625 1569.570312 1352.621094 L 1572.300781 1338.601562 L 1571.851562 1322.941406 L 1571.558594 1313.359375 L 1564.648438 1316.300781 "/>
<path fill-rule="evenodd" fill="rgb(98.826599%, 89.0625%, 76.951599%)" fill-opacity="1" d="M 1634.738281 1347.03125 C 1633.449219 1355.78125 1632.53125 1365.789062 1628.71875 1373.628906 C 1621.890625 1387.671875 1607.96875 1396.089844 1590.339844 1388.738281 C 1589.808594 1388.519531 1589.300781 1388.289062 1588.808594 1388.03125 C 1577.441406 1382.210938 1572.898438 1368.539062 1571.511719 1359.199219 C 1571.398438 1358.480469 1571.160156 1357.800781 1570.980469 1357.128906 C 1567.601562 1342.898438 1565.628906 1332.550781 1569.921875 1321.511719 C 1577.429688 1302.210938 1611.25 1288.78125 1626.769531 1311.191406 C 1634.820312 1322.820312 1633.871094 1333.640625 1634.738281 1347.03125 "/>
<path fill-rule="evenodd" fill="rgb(24.705505%, 10.984802%, 18.821716%)" fill-opacity="1" d="M 1634.261719 1337.53125 C 1633.96875 1331.828125 1633.5 1326.488281 1631.769531 1321.191406 L 1635.648438 1323.539062 L 1637.230469 1332.769531 C 1636.890625 1334.109375 1637.980469 1336.550781 1636.351562 1337.601562 C 1636.101562 1337.761719 1634.390625 1337.261719 1634.261719 1337.53125 "/>
<path fill-rule="evenodd" fill="rgb(24.705505%, 10.984802%, 18.821716%)" fill-opacity="1" d="M 1630.730469 1321.578125 C 1613.75 1297.988281 1581.460938 1327.691406 1564.191406 1318.03125 C 1558.480469 1314.828125 1557.699219 1308.199219 1560.441406 1300.839844 C 1566.460938 1284.640625 1606.25 1265.121094 1586.078125 1291.128906 C 1583.390625 1294.589844 1595.910156 1291.550781 1605.488281 1290.089844 C 1609.238281 1289.519531 1612.648438 1289.261719 1614.769531 1289.878906 L 1615.238281 1290.019531 C 1634.589844 1295.820312 1638.339844 1318.589844 1637.230469 1332.769531 L 1630.730469 1321.578125 "/>
<path fill-rule="evenodd" fill="rgb(24.705505%, 10.984802%, 18.821716%)" fill-opacity="1" d="M 1628.070312 1313.191406 C 1628.328125 1313.03125 1621.929688 1332.351562 1634.269531 1337.53125 L 1634.691406 1334.960938 L 1633.710938 1322.371094 L 1628.070312 1313.191406 "/>
<path fill-rule="evenodd" fill="rgb(98.826599%, 89.0625%, 76.951599%)" fill-opacity="1" d="M 1634.359375 1350.929688 L 1629.140625 1352.78125 L 1630.339844 1346.96875 C 1630.769531 1345.941406 1632.851562 1340.621094 1634.628906 1336.71875 C 1641.410156 1321.878906 1650.121094 1344.03125 1634.359375 1350.929688 "/>
<path fill-rule="evenodd" fill="rgb(98.826599%, 89.0625%, 76.951599%)" fill-opacity="1" d="M 1572.929688 1357.640625 L 1570.078125 1348.710938 C 1566.890625 1342.269531 1561.679688 1341.601562 1563.359375 1349.238281 C 1565.800781 1360.371094 1567.460938 1358.808594 1573.589844 1363.460938 L 1572.929688 1357.640625 "/>
<path fill-rule="evenodd" fill="rgb(24.705505%, 10.984802%, 18.821716%)" fill-opacity="1" d="M 1602.699219 1300.871094 C 1609.351562 1309.339844 1623.898438 1327.691406 1632.621094 1315.980469 L 1633.679688 1311.800781 L 1625.769531 1298.949219 L 1619.789062 1297.449219 C 1619.789062 1297.449219 1613.03125 1297.921875 1612.300781 1297.949219 C 1611.570312 1297.988281 1602.699219 1300.871094 1602.699219 1300.871094 "/>
<path fill-rule="evenodd" fill="rgb(100%, 36.083984%, 36.083984%)" fill-opacity="1" d="M 1555.289062 1482.058594 L 1543.660156 1502.917969 C 1546.828125 1529.898438 1559.5 1531.101562 1574.261719 1522.710938 C 1587.75 1515.046875 1600.949219 1506.6875 1614.300781 1498.164062 C 1633.320312 1486.03125 1652.621094 1473.570312 1673.441406 1462.324219 C 1712.589844 1437.085938 1691.671875 1399.570312 1654.140625 1405.210938 C 1628.351562 1409.085938 1588.621094 1458.363281 1555.289062 1482.058594 "/>
<path fill-rule="evenodd" fill="rgb(93.75%, 29.417419%, 29.026794%)" fill-opacity="1" d="M 1747.960938 1878.386719 C 1749.300781 1882.5 1759.671875 1901.097656 1759.671875 1901.097656 C 1765.761719 1916.773438 1772.039062 1931.660156 1772.191406 1948.667969 C 1772.21875 1952.316406 1772.269531 1955.921875 1772.519531 1959.039062 C 1772.949219 1964.390625 1778.378906 1971.476562 1784.761719 1966.539062 C 1798.070312 1956.246094 1796.890625 1920.085938 1798.820312 1904.050781 C 1799.421875 1899.105469 1800.460938 1894.230469 1801.269531 1889.324219 C 1802.53125 1881.773438 1804.898438 1871.914062 1803.851562 1864.417969 C 1802.25 1853.011719 1795.261719 1854.648438 1774.75 1856.230469 C 1771.621094 1856.472656 1768.648438 1856.210938 1765.390625 1854.230469 L 1759.988281 1861.253906 L 1754.449219 1866.203125 L 1747.960938 1878.386719 "/>
<path fill-rule="evenodd" fill="rgb(43.530273%, 7.835388%, 20.776367%)" fill-opacity="1" d="M 1635.808594 1736.871094 C 1663.28125 1760.933594 1698.628906 1790.417969 1724.621094 1814.703125 C 1733.941406 1823.414062 1743.429688 1832.023438 1753.28125 1840.433594 L 1767.769531 1853.136719 C 1769.71875 1875.550781 1764.320312 1887.746094 1749.980469 1885.953125 C 1722.03125 1865.726562 1635.839844 1800.855469 1606.539062 1782.640625 L 1621.71875 1762.605469 C 1621.71875 1762.605469 1633.738281 1763.890625 1635.328125 1758.050781 C 1636.929688 1752.210938 1634.378906 1747.964844 1634.269531 1746.261719 C 1634.160156 1744.558594 1635.808594 1736.871094 1635.808594 1736.871094 "/>
<path fill-rule="evenodd" fill="rgb(22.338867%, 37.646484%, 58.789062%)" fill-opacity="1" d="M 793.25 1461.503906 L 803.3125 1487.289062 C 795.335938 1516.835938 780.542969 1515.535156 764.871094 1503.054688 C 750.5625 1491.65625 736.683594 1479.535156 722.664062 1467.207031 C 702.699219 1449.644531 682.449219 1431.65625 660.257812 1414.71875 C 619.1875 1378.269531 649.308594 1340.640625 691.652344 1354.800781 C 720.753906 1364.53125 758.644531 1428.011719 793.25 1461.503906 "/>
<path fill-rule="evenodd" fill="rgb(98.826599%, 89.0625%, 76.951599%)" fill-opacity="1" d="M 878.039062 1307.480469 C 880.816406 1296.5 881.238281 1292.699219 883.859375 1288.289062 C 885.3125 1285.839844 887.441406 1283.199219 891.019531 1279.039062 L 906.019531 1280.699219 C 908.519531 1281.089844 911.566406 1281.679688 914.3125 1282.738281 C 918.230469 1284.261719 921.546875 1286.738281 921.835938 1290.949219 C 922.394531 1291.609375 923.015625 1292.351562 923.644531 1293.140625 C 927.703125 1298.28125 931.976562 1305.261719 920.792969 1301.5 C 918.773438 1306.730469 918.214844 1306.070312 913.195312 1304.621094 C 911.726562 1311 907.0625 1306.640625 902.59375 1303.738281 C 900.363281 1302.300781 901.714844 1303.699219 895.648438 1305.359375 C 891.449219 1306.519531 885.691406 1307.519531 882.269531 1307.351562 L 878.039062 1307.480469 "/>
<path fill-rule="evenodd" fill="rgb(98.826599%, 89.0625%, 76.951599%)" fill-opacity="1" d="M 898.277344 1421.429688 L 906.628906 1411.183594 L 909.351562 1402.488281 L 912.359375 1394.941406 L 917.496094 1388.121094 C 918.929688 1385.058594 919.296875 1383.671875 921.746094 1381.621094 L 924.386719 1377.910156 C 926.328125 1376.398438 927.464844 1376.21875 928.070312 1376.960938 C 929.980469 1379.320312 927.609375 1385.191406 926.488281 1387.558594 L 933.535156 1379.980469 L 936.964844 1376 L 942.183594 1371.410156 L 946.367188 1368.160156 L 949.503906 1365.628906 L 952.011719 1364.230469 C 953.945312 1364.75 954.777344 1365.640625 954.9375 1366.761719 C 955.433594 1370.210938 950.601562 1374.339844 948.621094 1376.390625 L 942.179688 1382.769531 L 939.296875 1386.46875 L 941.496094 1385.078125 L 945.066406 1381.050781 L 948.898438 1377.648438 L 951.621094 1375.898438 L 955.226562 1374.199219 L 962.820312 1370.5 L 965.804688 1368.839844 C 970.226562 1372.148438 969.492188 1374.980469 965.457031 1377.878906 C 959.746094 1379.851562 958.210938 1380.75 953.488281 1384.988281 L 957.496094 1383.339844 L 967.9375 1377.480469 C 968.722656 1377.320312 969.195312 1377.199219 969.53125 1377.261719 C 970.039062 1377.351562 970.234375 1377.878906 970.730469 1379.410156 C 971.890625 1382.980469 969.5625 1383.730469 966.09375 1385.949219 L 960.097656 1389.738281 C 956.6875 1392.128906 953.046875 1394.429688 950.066406 1397.511719 C 949.0625 1398.550781 948.136719 1399.671875 947.316406 1400.914062 L 947.203125 1403.296875 L 948.105469 1403.707031 C 953.4375 1400.308594 958.484375 1398.589844 964.308594 1396.578125 L 967.199219 1395.128906 L 969.191406 1396.058594 C 969.523438 1398.691406 968.453125 1400.441406 966.847656 1401.769531 C 965.933594 1402.523438 964.84375 1403.140625 963.734375 1403.695312 C 960.089844 1405.527344 956.578125 1407.476562 952.898438 1409.265625 L 950.675781 1410.570312 L 945.21875 1415.433594 C 932.398438 1427.246094 929.199219 1425.867188 920.628906 1429.6875 L 909.910156 1438.5 L 898.277344 1421.429688 "/>
<path fill-rule="evenodd" fill="rgb(98.826599%, 89.0625%, 76.951599%)" fill-opacity="1" d="M 1426.378906 1521.214844 L 1418.578125 1516.796875 L 1413.078125 1515.875 C 1405.460938 1513.421875 1403.738281 1514.199219 1395.769531 1514.695312 C 1391.460938 1514.558594 1387.050781 1514.679688 1382.78125 1514.109375 C 1373.140625 1512.824219 1376.898438 1517.847656 1382.578125 1520.898438 C 1377.25 1521.679688 1373.058594 1521.316406 1369.820312 1522.898438 C 1358.261719 1528.519531 1368.339844 1529.757812 1376.230469 1529.957031 C 1379.648438 1530.039062 1382.648438 1529.933594 1383.328125 1529.898438 L 1392.039062 1530.9375 L 1381.871094 1532.699219 C 1377.488281 1533.660156 1374.648438 1533.988281 1371.429688 1534.21875 C 1368.441406 1534.433594 1364.039062 1534.648438 1362.460938 1536.527344 C 1357.820312 1542.058594 1369.71875 1541.964844 1372.089844 1542.039062 L 1380.441406 1542.046875 L 1386.351562 1541.882812 L 1389.820312 1541.554688 C 1384.140625 1542.734375 1364.699219 1543.03125 1366.679688 1547.929688 C 1368.578125 1552.652344 1375.671875 1550.835938 1380.691406 1550.519531 L 1392.75 1550.460938 C 1388.75 1552.984375 1389.089844 1552.613281 1384.371094 1553.019531 C 1379.878906 1552.945312 1377.671875 1552.648438 1375.519531 1555.644531 C 1373.308594 1558.71875 1377.308594 1559.617188 1381.390625 1559.847656 C 1384.121094 1560.003906 1386.878906 1559.863281 1387.851562 1559.878906 C 1405.140625 1556.613281 1422.621094 1546.101562 1446.820312 1541.070312 L 1439.230469 1541.910156 L 1435.199219 1521.371094 L 1426.378906 1521.214844 "/>
<path fill-rule="evenodd" fill="rgb(100%, 36.083984%, 36.083984%)" fill-opacity="1" d="M 1557.640625 1499.515625 C 1647.28125 1530.484375 1474.28125 1542.410156 1431.878906 1546.011719 L 1429.769531 1520.960938 C 1495.828125 1504.765625 1508.171875 1495.648438 1555.289062 1482.058594 L 1557.640625 1499.515625 "/>
<path fill-rule="evenodd" fill="rgb(16.088867%, 29.80957%, 49.021912%)" fill-opacity="1" d="M 669.289062 1421.746094 C 669.289062 1421.746094 745.777344 1513.039062 789.488281 1527.234375 C 791.339844 1518.375 793.230469 1509.527344 795.101562 1500.675781 C 795.410156 1499.226562 783.726562 1512.894531 783.183594 1511.414062 C 777.492188 1511.367188 771.253906 1508.140625 764.871094 1503.054688 C 750.5625 1491.65625 736.683594 1479.539062 722.664062 1467.207031 C 705.4375 1452.054688 688.003906 1436.585938 669.289062 1421.746094 "/>
<path fill-rule="evenodd" fill="rgb(16.088867%, 29.80957%, 49.021912%)" fill-opacity="1" d="M 767.894531 1418.332031 L 721.210938 1376.460938 L 714.339844 1370.300781 C 716.609375 1372.449219 718.90625 1374.761719 721.226562 1377.210938 C 730.570312 1387.039062 740.300781 1399.03125 750.160156 1411.328125 C 763.640625 1428.15625 777.359375 1445.582031 790.644531 1458.933594 C 795.371094 1456.984375 799.738281 1455.226562 803.882812 1453.589844 C 804.011719 1452.710938 804.140625 1451.832031 804.265625 1450.957031 L 767.894531 1418.332031 "/>
<path fill-rule="evenodd" fill="rgb(22.338867%, 37.646484%, 58.789062%)" fill-opacity="1" d="M 783.972656 1472.59375 C 729.320312 1567.03125 882.582031 1462.941406 921.460938 1435.398438 L 905.386719 1410.34375 C 837.261719 1443.316406 826.535156 1443.308594 776.488281 1464.914062 L 783.972656 1472.59375 "/>
</svg>
